<svg width="102" height="139" viewBox="0 0 102 139" fill="none" xmlns="http://www.w3.org/2000/svg">
<g clip-path="url(#clip0_115_676)">
<path d="M94.53 19.13L58.27 37.48" stroke="#FF69CC" stroke-width="0.75" stroke-linecap="round" stroke-linejoin="round"/>
<path d="M56.38 7.69998L60.65 37.48L84.59 61.42" stroke="#F5F5F5" stroke-width="0.75" stroke-linecap="round" stroke-linejoin="round"/>
<path d="M87.85 67.83C86.6 67.83 85.32 67.24 84.34 66.2C81.28 62.97 88.47 54.7 88.77 54.35C99.71 35.89 80.09 16.93 73.81 11.56C70.03 8.31998 65.25 7.90998 61.51 7.90998C60.16 7.90998 58.87 7.96998 57.63 8.02998C56.57 8.07998 55.57 8.12998 54.67 8.12998C52.81 8.12998 50.98 7.95998 50.21 6.71998C48.74 4.33998 49.2 2.75998 49.61 2.02998C50.18 0.999984 51.31 0.389984 52.62 0.389984C53.35 0.389984 54.1 0.589984 54.79 0.959984C55.22 1.19998 55.61 1.50998 56.02 1.82998C57.16 2.73998 58.44 3.76998 61.44 3.76998C61.84 3.76998 62.26 3.74998 62.69 3.73998C63.16 3.71998 63.66 3.69998 64.17 3.69998C68.57 3.69998 74.06 5.17998 84.33 15.95C97.7 29.96 96.96 49.67 94.68 52.85C94.46 53.15 94.24 53.45 94.02 53.76C91.97 56.56 89.65 59.73 90.76 62.7C91.32 64.18 91.25 65.54 90.58 66.51C89.99 67.36 89 67.85 87.86 67.85L87.85 67.83Z" fill="#FF69CC"/>
<path d="M52.63 0.74999C53.28 0.74999 53.96 0.91999 54.62 1.26999C56.2 2.12999 57.24 4.12999 61.44 4.12999C62.29 4.12999 63.18 4.05999 64.17 4.05999C68.08 4.05999 73.54 5.16999 84.06 16.19C97.23 30 96.6 49.52 94.38 52.61C92.16 55.7 89.1 59.32 90.41 62.81C91.5 65.71 89.9 67.45 87.85 67.45C86.78 67.45 85.59 66.97 84.61 65.94C81.75 62.92 89.05 54.59 89.05 54.59C99.64 36.74 82.31 18.33 74.05 11.27C70.37 8.11999 65.72 7.52999 61.51 7.52999C58.97 7.52999 56.58 7.74999 54.67 7.74999C52.65 7.74999 51.15 7.50999 50.53 6.51999C48.37 3.02999 50.24 0.75999 52.62 0.75999M52.62 0.00999023C51.17 0.00999023 49.92 0.69999 49.28 1.84999C48.83 2.64999 48.32 4.36999 49.89 6.91999C50.75 8.31999 52.69 8.50999 54.67 8.50999C55.58 8.50999 56.58 8.45999 57.65 8.40999C58.89 8.34999 60.17 8.28999 61.52 8.28999C65.19 8.28999 69.88 8.68999 73.57 11.85C79.78 17.17 99.2 35.92 88.44 54.16C87.46 55.29 80.89 63.11 84.06 66.46C85.11 67.57 86.49 68.21 87.84 68.21C89.11 68.21 90.21 67.66 90.87 66.71C91.62 65.63 91.7 64.15 91.1 62.55C90.05 59.78 92.31 56.69 94.31 53.97C94.54 53.66 94.76 53.35 94.98 53.05C97.3 49.81 98.1 29.83 84.6 15.67C74.23 4.79999 68.66 3.30999 64.17 3.30999C63.65 3.30999 63.15 3.32999 62.67 3.34999C62.25 3.36999 61.84 3.37999 61.44 3.37999C58.58 3.37999 57.35 2.38999 56.26 1.51999C55.84 1.17999 55.44 0.85999 54.98 0.60999C54.24 0.20999 53.43 -0.0100098 52.63 -0.0100098L52.62 0.00999023Z" fill="#F5F5F5"/>
<path d="M59.59 34.63C59.59 34.63 59.06 31.98 61.32 31.44C63.58 30.9 64.17 31.96 64.29 33.28" fill="#F5F5F5"/>
<path d="M59.59 34.63C59.59 34.63 59.06 31.98 61.32 31.44C63.58 30.9 64.17 31.96 64.29 33.28" stroke="#FF69CC" stroke-width="0.75" stroke-linecap="round" stroke-linejoin="round"/>
<path d="M69.34 119.1C68.83 119.1 68.19 118.96 67.39 118.66C63.58 117.27 61.18 116.2 59.84 111.81C59.22 109.77 58.08 108.74 57.08 107.83C56.11 106.95 55.19 106.12 55 104.61C54.67 101.94 57.61 100.06 58.52 99.55C58.22 98.07 57.01 91.28 59.14 88.36C56.55 87.72 46.68 85.02 43.6 80.04C42.72 78.61 42.47 77.1 42.86 75.55C43.49 73.1 44.35 70.85 45.12 68.87C46.99 64.02 48.47 60.18 45.43 56.42C43.04 53.45 43.16 48.29 43.28 43.3C43.39 38.81 43.49 34.57 41.7 32.7C40.34 31.28 40.3 28.84 41.58 25.83C43.27 21.88 47.2 17.28 49.74 17.28C50.03 17.28 50.3 17.34 50.54 17.47C52.07 18.28 52.47 19.56 52.83 20.7C53.23 21.97 53.52 22.88 55.2 22.96C56.44 23.02 57.28 23.41 57.68 24.11C58.16 24.94 57.87 25.94 57.69 26.37C58.28 27.16 60.42 30.26 58.85 32.14C57.69 33.54 56.51 34.49 55.71 34.99C57.84 34.22 63.65 32.25 68.25 31.96C71.55 31.75 74.9 29.27 77.86 27.07C79.75 25.67 81.4 24.44 82.84 23.93C82.82 23.34 82.86 22.06 83.53 21.23C83.84 20.84 84.25 20.61 84.74 20.51C85.01 20.03 85.85 18.89 87.66 18.89C88.01 18.89 88.37 18.93 88.75 19.02C89.96 19.29 91.09 20.37 91.93 22.06C92.83 23.87 93.2 26 92.78 26.92C92.16 28.28 89.68 29 88.13 29C87.83 29 87.55 28.98 87.31 28.93C86.39 30.11 81.57 36.11 77.61 38.05C77.01 38.34 75.93 39.19 74.69 40.17C72.18 42.14 69.07 44.59 67.18 44.62C67.22 45.35 67.28 46.84 67.15 48.17C67.11 48.57 67.43 49.33 67.84 50.29C68.98 52.96 70.89 57.42 69.16 63.73C70.24 64.74 71.81 65.89 73.62 67.21C79.34 71.39 87.18 77.13 86.07 84.08C85.23 89.31 81.02 92.85 77.3 95.97C74.62 98.22 72.08 100.35 71.42 102.69L71.22 103.41C69.74 108.64 69 111.27 69.99 114.06C70.7 116.06 71.19 117.66 70.58 118.53C70.32 118.9 69.9 119.08 69.32 119.08L69.34 119.1Z" fill="#F5F5F5"/>
<path d="M49.75 17.65C49.98 17.65 50.19 17.7 50.37 17.8C53.4 19.41 51.62 23.16 55.19 23.33C58.76 23.51 57.27 26.42 57.27 26.42C57.27 26.42 60.17 29.99 58.58 31.9C56.99 33.81 55.49 34.76 54.97 34.97L55.05 35.64C55.05 35.64 62.67 32.69 68.31 32.33C73.94 31.97 79.62 25.27 83.27 24.2C83.27 24.2 82.91 21.07 85.02 20.87C85.02 20.87 85.68 19.28 87.7 19.28C88.01 19.28 88.34 19.32 88.71 19.4C91.53 20.03 93.11 25.39 92.48 26.78C91.96 27.91 89.77 28.65 88.17 28.65C87.81 28.65 87.47 28.61 87.2 28.53C87.2 28.53 81.77 35.64 77.48 37.73C75.61 38.64 69.85 44.26 67.18 44.26C67.05 44.26 66.92 44.25 66.8 44.22C66.8 44.22 66.98 46.36 66.8 48.15C66.62 49.94 71.26 55.11 68.76 63.86C73.22 68.19 87.15 75.11 85.72 84.03C84.29 92.96 72.69 96.88 71.08 102.6C69.47 108.32 68.58 111.17 69.65 114.2C70.51 116.63 71.14 118.72 69.33 118.72C68.88 118.72 68.28 118.59 67.5 118.31C63.57 116.88 61.43 115.81 60.18 111.7C58.93 107.59 55.72 107.42 55.36 104.56C55 101.7 58.93 99.74 58.93 99.74C58.93 99.74 56.97 90.81 59.82 88.14C59.82 88.14 41.07 84.03 43.22 75.64C45.37 67.25 50.18 61.71 45.72 56.18C41.26 50.65 45.9 36.54 41.97 32.43C38.28 28.58 46.24 17.64 49.74 17.64M49.74 16.89C47.06 16.89 42.97 21.61 41.24 25.67C39.89 28.82 39.96 31.41 41.43 32.95C43.11 34.71 43.01 38.87 42.91 43.28C42.79 48.34 42.66 53.57 45.14 56.65C48.04 60.25 46.67 63.81 44.77 68.73C44 70.72 43.13 72.98 42.5 75.45C42.08 77.1 42.34 78.71 43.28 80.23C46.25 85.05 55.32 87.76 58.54 88.59C56.8 91.66 57.72 97.44 58.09 99.35C56.94 100.05 54.28 101.96 54.62 104.65C54.83 106.3 55.84 107.22 56.82 108.11C57.83 109.03 58.88 109.98 59.47 111.92C60.83 116.39 63.32 117.58 67.25 119.01C68.1 119.32 68.78 119.47 69.33 119.47C70.21 119.47 70.67 119.08 70.9 118.76C71.61 117.75 71.1 116.06 70.36 113.95C69.41 111.27 70.14 108.68 71.6 103.53L71.8 102.8C72.43 100.57 74.92 98.48 77.56 96.27C81.33 93.11 85.6 89.52 86.46 84.15C87.61 76.97 79.66 71.16 73.86 66.92C72.15 65.67 70.66 64.58 69.6 63.62C71.26 57.3 69.35 52.84 68.2 50.15C67.86 49.35 67.51 48.53 67.54 48.22C67.66 47.07 67.63 45.79 67.59 44.98C69.43 44.72 71.92 42.86 74.94 40.48C76.12 39.55 77.23 38.68 77.79 38.4C81.66 36.51 86.28 30.87 87.49 29.35C87.7 29.38 87.92 29.39 88.16 29.39C89.75 29.39 92.43 28.66 93.15 27.09C93.68 25.92 93.11 23.55 92.29 21.91C91.4 20.12 90.18 18.96 88.86 18.67C88.45 18.58 88.06 18.53 87.68 18.53C85.84 18.53 84.9 19.6 84.52 20.19C84.02 20.32 83.59 20.59 83.26 21C82.6 21.81 82.48 22.97 82.48 23.68C81.05 24.26 79.46 25.43 77.66 26.77C74.74 28.93 71.44 31.38 68.25 31.58C64.71 31.8 60.48 33 57.71 33.91C58.17 33.48 58.66 32.97 59.16 32.38C60.81 30.39 58.91 27.38 58.13 26.31C58.32 25.75 58.52 24.78 58.02 23.92C57.55 23.1 56.61 22.65 55.23 22.58C53.87 22.51 53.63 21.92 53.2 20.58C52.84 19.44 52.38 18.01 50.72 17.13C50.43 16.98 50.1 16.9 49.74 16.9V16.89Z" fill="#FF69CC"/>
<path d="M50.37 80.82C50.37 80.82 62.86 85.82 71.2 85.1C71.2 85.1 66.44 90.1 65.84 100.22C65.84 100.22 58.58 98.2 60.78 105.7C62.98 113.2 60.6 113.78 61.97 115.71" stroke="#FF69CC" stroke-width="0.75" stroke-linecap="round" stroke-linejoin="round"/>
<path d="M49.06 57.37C50.13 58.8 50.85 60.46 50.37 61.89" stroke="#FF69CC" stroke-width="0.75" stroke-linecap="round" stroke-linejoin="round"/>
<path d="M51.56 25.12C51.56 25.12 52.63 25.95 53.82 25.12" stroke="#FF69CC" stroke-width="0.75" stroke-linecap="round" stroke-linejoin="round"/>
<path d="M55.55 35.47C53.96 35.91 52.65 37.3 52.53 38.98C52.48 39.46 51.72 39.38 51.78 38.9C51.93 37.46 52.82 36.12 54.08 35.41C54.5 35.17 54.91 34.99 55.4 34.86C55.57 34.82 55.74 34.92 55.78 35.08C55.83 35.25 55.71 35.43 55.54 35.46L55.55 35.47Z" fill="#FF69CC"/>
<path d="M74.53 36.03C74.53 36.03 75.96 36.78 77.15 35" stroke="#FF69CC" stroke-width="0.75" stroke-linecap="round" stroke-linejoin="round"/>
<path d="M36.61 37.37C36.17 37.37 35.85 37.21 35.73 36.94C35.67 36.8 35.61 36.51 35.93 36.17C36.41 35.66 36.05 35.16 35.88 34.97C35.32 34.79 34.93 34.48 34.72 34.04C34.59 33.76 34.56 33.48 34.57 33.23C34.21 33.33 33.86 33.38 33.51 33.38C31.68 33.38 30.27 32.02 29.82 29.83C29.4 27.78 30.85 26.21 31.73 25.46C31.39 25.31 31.04 25.08 30.77 24.72C30.29 24.09 30.13 23.21 30.29 22.09C30.62 19.8 32.85 18.98 33.64 18.75C33.91 16.25 35.83 14.87 39.07 14.87C39.68 14.87 40.22 14.92 40.58 14.97C40.6 14.27 41.03 13.07 43.37 12.1C43.88 11.89 44.4 11.78 44.94 11.78C47.11 11.78 48.83 13.51 49.44 14.2C49.64 14.11 49.87 14.06 50.12 14.06C50.85 14.06 51.64 14.45 52.11 15.03C52.52 15.54 52.66 16.16 52.51 16.81C52.22 18.08 51.73 18.48 51.31 18.57C51.27 19.83 50.89 20.84 50.19 21.56C49.32 22.45 48.17 22.69 47.45 22.75C47.64 23.43 47.41 24.31 47.2 24.89C47.87 24.91 48.41 25.17 48.71 25.6C48.91 25.89 49.09 26.38 48.81 27.1C48.44 28.08 47.75 28.36 47.3 28.44C47.28 29.09 46.96 29.67 45.6 29.89C45.48 29.91 45.36 29.92 45.24 29.92C44.69 29.92 44.11 29.74 43.65 29.6C43.52 29.56 43.38 29.52 43.26 29.49C43.32 29.6 43.41 29.77 43.55 29.99C43.95 30.64 44.49 30.95 45.18 30.95C46.09 30.95 46.93 30.4 46.93 30.39L47.18 30.22L47.4 30.43C48.49 31.47 48.89 34.02 48.22 35.68C47.84 36.63 47.14 37.16 46.25 37.16C46.18 37.16 46.11 37.16 46.03 37.16C45.21 37.09 44.6 36.82 44.24 36.37C44.19 36.3 44.13 36.23 44.08 36.14C43.61 36.83 43.1 37.18 42.56 37.18C41.84 37.18 41.31 36.58 41.03 36.16C40.76 36.32 40.49 36.4 40.21 36.4C39.68 36.4 39.25 36.11 38.95 35.81C38.43 36.95 37.3 37.39 36.59 37.39L36.61 37.37Z" fill="#FF69CC"/>
<path d="M44.95 12.15C47.45 12.15 49.38 14.7 49.38 14.7C49.55 14.52 49.83 14.43 50.13 14.43C51.12 14.43 52.47 15.32 52.15 16.72C51.86 18.01 51.39 18.2 51.13 18.2C51.02 18.2 50.95 18.16 50.95 18.16C51.04 22.09 47.94 22.38 47.04 22.38C46.89 22.38 46.8 22.38 46.8 22.38C47.69 23.09 46.62 25.3 46.62 25.3C46.79 25.27 46.96 25.25 47.11 25.25C48.13 25.25 48.87 25.88 48.46 26.96C48.06 28.01 47.24 28.09 46.99 28.09C46.94 28.09 46.91 28.09 46.91 28.09C46.97 28.63 47.03 29.28 45.54 29.52C45.44 29.54 45.34 29.54 45.24 29.54C44.39 29.54 43.42 29.06 43 29.06C42.7 29.06 42.68 29.31 43.23 30.18C43.78 31.06 44.5 31.32 45.18 31.32C46.22 31.32 47.14 30.7 47.14 30.7C48.59 32.09 48.68 36.78 46.25 36.78C46.19 36.78 46.13 36.78 46.07 36.78C43.89 36.58 44.27 35.01 44.25 35.01C44.25 35.01 44.23 35.08 44.17 35.23C43.59 36.41 43.04 36.78 42.57 36.78C41.73 36.78 41.15 35.58 41.15 35.58C40.81 35.88 40.5 35.99 40.22 35.99C39.37 35.99 38.81 34.99 38.81 34.99C38.56 36.44 37.33 36.99 36.6 36.99C36.13 36.99 35.87 36.77 36.2 36.42C37.03 35.53 36.08 34.63 36.08 34.63C34.41 34.15 35.07 32.64 35.07 32.64C34.53 32.88 34 33 33.51 33C31.89 33 30.6 31.76 30.19 29.75C29.65 27.13 32.57 25.29 32.57 25.29C31.74 25.18 30.31 24.63 30.67 22.13C31.03 19.63 34 19.04 34 19.04C34.19 15.81 37.07 15.24 39.08 15.24C40.18 15.24 41.02 15.41 41.02 15.41C41.02 15.41 40.37 13.74 43.52 12.43C44.01 12.23 44.49 12.14 44.94 12.14M44.94 11.39C44.36 11.39 43.78 11.51 43.23 11.74C41.1 12.62 40.43 13.73 40.26 14.55C39.93 14.52 39.52 14.49 39.07 14.49C35.77 14.49 33.69 15.93 33.3 18.46C32.3 18.79 30.24 19.74 29.92 22.03C29.75 23.25 29.93 24.23 30.47 24.94C30.64 25.17 30.85 25.37 31.09 25.53C30.17 26.43 29.05 27.96 29.45 29.9C29.93 32.24 31.52 33.75 33.5 33.75C33.74 33.75 33.98 33.73 34.22 33.69C34.25 33.86 34.3 34.03 34.38 34.2C34.55 34.55 34.9 35.02 35.66 35.29C35.83 35.51 35.83 35.72 35.65 35.91C35.17 36.42 35.3 36.9 35.38 37.08C35.56 37.5 36.01 37.74 36.6 37.74C37.47 37.74 38.47 37.26 39.06 36.36C39.37 36.58 39.76 36.74 40.22 36.74C40.46 36.74 40.7 36.69 40.93 36.6C41.28 37.04 41.84 37.53 42.57 37.53C43.12 37.53 43.63 37.26 44.09 36.74C44.53 37.18 45.17 37.45 46.01 37.52C46.1 37.52 46.18 37.53 46.26 37.53C47.3 37.53 48.14 36.91 48.58 35.82C49.29 34.05 48.85 31.3 47.67 30.16L47.23 29.74L46.73 30.08C46.73 30.08 45.97 30.57 45.18 30.57C44.75 30.57 44.41 30.42 44.12 30.12C44.47 30.21 44.86 30.29 45.24 30.29C45.38 30.29 45.52 30.28 45.66 30.26C47.14 30.02 47.56 29.33 47.65 28.74C48.24 28.55 48.83 28.09 49.15 27.23C49.41 26.55 49.36 25.89 49.01 25.38C48.72 24.96 48.26 24.68 47.69 24.56C47.82 24.1 47.92 23.57 47.88 23.07C48.64 22.95 49.66 22.63 50.45 21.82C51.17 21.08 51.58 20.08 51.67 18.84C52.13 18.63 52.6 18.1 52.87 16.89C53.04 16.13 52.87 15.39 52.39 14.79C51.85 14.12 50.96 13.68 50.11 13.68C49.91 13.68 49.71 13.71 49.53 13.76C48.77 12.94 47.06 11.4 44.93 11.4L44.94 11.39Z" fill="#F5F5F5"/>
<path d="M42.87 29.52C42.87 29.52 43.94 32.5 47.15 30.71C47.15 30.71 47.78 32.61 49.79 32.73" stroke="#FF69CC" stroke-width="0.75" stroke-linecap="round" stroke-linejoin="round"/>
<path d="M51.56 43.65C50.41 39.76 48.19 38.73 40.73 38.93C33.27 39.13 28.11 37.16 23.67 41.28C19.23 45.4 12.24 50.48 6.44999 51.43C0.659993 52.38 -2.99001 60.16 4.93999 58.89C4.93999 58.89 6.12999 64.13 10.42 60.79C10.42 60.79 11.69 63.25 14.39 61.11C14.39 61.11 15.9 63.89 19.31 61.59C19.31 61.59 21.53 64.37 24.55 61.59C24.55 61.59 26.38 63.18 28.52 61.43C28.52 61.43 31.06 62.98 33.44 60.02C33.44 60.02 36.06 61.43 38.04 58.65C38.04 58.65 41.49 60.18 42.88 56.67C42.88 56.67 46.45 58.34 47.88 55.24C49.31 52.14 50.1 52.09 51.57 50.73" fill="#F5F5F5"/>
<path d="M51.56 43.65C50.41 39.76 48.19 38.73 40.73 38.93C33.27 39.13 28.11 37.16 23.67 41.28C19.23 45.4 12.24 50.48 6.44999 51.43C0.659993 52.38 -2.99001 60.16 4.93999 58.89C4.93999 58.89 6.12999 64.13 10.42 60.79C10.42 60.79 11.69 63.25 14.39 61.11C14.39 61.11 15.9 63.89 19.31 61.59C19.31 61.59 21.53 64.37 24.55 61.59C24.55 61.59 26.38 63.18 28.52 61.43C28.52 61.43 31.06 62.98 33.44 60.02C33.44 60.02 36.06 61.43 38.04 58.65C38.04 58.65 41.49 60.18 42.88 56.67C42.88 56.67 46.45 58.34 47.88 55.24C49.31 52.14 50.1 52.09 51.57 50.73" stroke="#FF69CC" stroke-width="0.75" stroke-linecap="round" stroke-linejoin="round"/>
<path d="M42.87 56.66C42.87 56.66 43.03 53.09 47.08 51.11" stroke="#FF69CC" stroke-width="0.75" stroke-linecap="round" stroke-linejoin="round"/>
<path d="M38.03 58.64C38.03 58.64 39.22 54.51 42.31 52.69" stroke="#FF69CC" stroke-width="0.75" stroke-linecap="round" stroke-linejoin="round"/>
<path d="M33.43 60.01C33.43 60.01 35.33 55.63 37.16 53.88" stroke="#FF69CC" stroke-width="0.75" stroke-linecap="round" stroke-linejoin="round"/>
<path d="M28.51 61.42C28.51 61.42 29.7 57.45 33.43 55.67" stroke="#FF69CC" stroke-width="0.75" stroke-linecap="round" stroke-linejoin="round"/>
<path d="M24.54 61.58C24.54 61.58 24.38 57.45 28.98 53.88C33.58 50.31 33.98 49.04 33.98 49.04" stroke="#FF69CC" stroke-width="0.75" stroke-linecap="round" stroke-linejoin="round"/>
<path d="M19.31 61.58C19.31 61.58 19.39 58.01 23.2 55.67C27.01 53.33 29.07 52.14 29.27 50.39" stroke="#FF69CC" stroke-width="0.75" stroke-linecap="round" stroke-linejoin="round"/>
<path d="M14.39 61.1C14.39 61.1 15.42 56.97 19.31 54.83C23.2 52.69 25.1 50.78 25.58 48.09" stroke="#FF69CC" stroke-width="0.75" stroke-linecap="round" stroke-linejoin="round"/>
<path d="M10.42 60.79C10.42 60.79 11.77 56.27 15.02 54.6C18.27 52.93 20.18 51.9 20.81 50.39" stroke="#FF69CC" stroke-width="0.75" stroke-linecap="round" stroke-linejoin="round"/>
<path d="M4.93999 58.88C4.93999 58.88 6.76999 56.02 10.42 54.28" stroke="#FF69CC" stroke-width="0.75" stroke-linecap="round" stroke-linejoin="round"/>
<path d="M45.13 93.92C43.69 93.92 42.08 93.02 41.94 91.04C41.84 89.57 42.42 88.74 42.81 88.18C43.03 87.87 43.16 87.68 43.12 87.54C43.05 87.26 42.43 86.8 41.26 86.18C39.48 85.23 39.92 83.93 40.31 82.78C40.69 81.68 41.04 80.63 39.9 79.53C38.72 78.39 38.09 76.93 38.07 75.32C38.04 73.29 39 71.18 40.75 69.4C42.15 67.97 42.48 66.84 42.75 65.93C43.04 64.93 43.29 64.06 44.86 63.59C45.28 63.46 45.71 63.4 46.15 63.4C47.84 63.4 49.34 64.32 50.79 65.21C52.06 65.99 53.26 66.73 54.42 66.73C54.56 66.73 54.7 66.72 54.84 66.7C55.26 66.37 57.19 65.01 60.78 65.01C62.29 65.01 62.96 64.5 63.67 63.96C64.32 63.47 64.99 62.96 66.22 62.96C66.95 62.96 67.81 63.14 68.87 63.5C70.08 63.92 71.24 64.12 72.42 64.12C73.05 64.12 73.58 64.07 74.04 64.02C74.38 63.98 74.68 63.95 74.93 63.95C75.92 63.95 76.32 64.46 76.33 65.7C76.33 66.73 76.19 67.4 76.03 67.82C77.17 67.86 79.3 68.06 80.18 68.98C80.48 69.29 80.63 69.66 80.61 70.08C80.56 71.3 79.08 71.3 78.44 71.3C78.15 71.3 77.84 71.29 77.52 71.28C77.2 71.27 76.86 71.26 76.54 71.26C75.01 71.26 74.3 71.55 74.08 72.25C73.2 75.07 71.03 76.42 61.08 76.42C60.43 76.42 59.75 76.42 59.04 76.4H58.81C53.46 76.4 53.28 79.55 53.11 82.59C53 84.53 52.9 86.35 51.2 86.78C48.15 87.56 48.11 88.47 48.03 90.66C48.02 90.93 48.01 91.22 47.99 91.52C47.9 93.18 46.43 93.93 45.11 93.93L45.13 93.92Z" fill="#FF69CC"/>
<path d="M66.23 63.34C66.87 63.34 67.68 63.49 68.76 63.86C70.23 64.36 71.44 64.5 72.43 64.5C73.54 64.5 74.37 64.33 74.94 64.33C75.64 64.33 75.96 64.58 75.96 65.71C75.96 67.7 75.4 68.19 75.4 68.19C75.4 68.19 75.44 68.19 75.52 68.19C76.28 68.19 80.31 68.28 80.24 70.07C80.21 70.79 79.45 70.93 78.45 70.93C77.86 70.93 77.2 70.88 76.55 70.88C75.27 70.88 74.07 71.06 73.73 72.13C72.98 74.52 71.46 76.04 61.08 76.04C60.44 76.04 59.76 76.04 59.05 76.02C58.97 76.02 58.89 76.02 58.82 76.02C49.54 76.02 54.82 85.47 51.12 86.42C47.39 87.37 47.79 88.72 47.63 91.5C47.55 92.84 46.36 93.56 45.13 93.56C43.81 93.56 42.44 92.75 42.32 91.03C42.08 87.7 45.67 88.11 41.45 85.87C38.46 84.28 42.8 81.82 40.18 79.28C37.56 76.74 38 72.77 41.03 69.68C44.07 66.59 42.32 64.76 44.98 63.97C45.38 63.85 45.78 63.8 46.16 63.8C49.21 63.8 51.8 67.13 54.43 67.13C54.63 67.13 54.82 67.11 55.02 67.07C55.02 67.07 56.89 65.4 60.79 65.4C63.87 65.4 63.86 63.35 66.23 63.35M66.23 62.6C64.87 62.6 64.11 63.17 63.45 63.68C62.77 64.2 62.18 64.65 60.79 64.65C57.3 64.65 55.3 65.91 54.7 66.36C54.61 66.37 54.52 66.38 54.43 66.38C53.37 66.38 52.22 65.67 50.99 64.92C49.5 64 47.95 63.05 46.16 63.05C45.69 63.05 45.22 63.12 44.76 63.25C43 63.78 42.69 64.83 42.4 65.84C42.13 66.75 41.83 67.79 40.5 69.15C38.68 71.01 37.69 73.21 37.71 75.34C37.73 77.05 38.41 78.6 39.66 79.81C40.58 80.7 40.38 81.48 39.97 82.67C39.6 83.77 39.03 85.43 41.1 86.52C42.34 87.18 42.67 87.49 42.75 87.61C42.71 87.7 42.6 87.85 42.51 87.97C42.09 88.57 41.45 89.47 41.57 91.07C41.73 93.29 43.53 94.3 45.13 94.3C46.92 94.3 48.29 93.14 48.38 91.54C48.4 91.23 48.41 90.95 48.42 90.67C48.5 88.51 48.53 87.85 51.31 87.14C53.27 86.64 53.38 84.59 53.5 82.6C53.67 79.6 53.83 76.76 58.83 76.76H59.05C59.77 76.77 60.45 76.78 61.1 76.78C71.28 76.78 73.52 75.35 74.46 72.35C74.57 71.99 74.91 71.62 76.56 71.62C76.88 71.62 77.21 71.63 77.53 71.64C77.85 71.65 78.17 71.66 78.46 71.66C79.07 71.66 80.94 71.66 81 70.08C81.02 69.57 80.84 69.09 80.47 68.71C79.61 67.82 77.83 67.54 76.54 67.45C76.65 67.01 76.72 66.43 76.72 65.68C76.72 64.77 76.53 63.56 74.95 63.56C74.67 63.56 74.37 63.59 74.02 63.63C73.56 63.68 73.05 63.73 72.44 63.73C71.3 63.73 70.18 63.53 69.02 63.13C67.92 62.75 67.01 62.57 66.24 62.57L66.23 62.6Z" fill="#F5F5F5"/>
<path d="M75.79 67.77C74.6 68.24 69.59 64.96 65.22 67.22C60.63 69.59 58.11 72.75 56.38 73.35" stroke="#F5F5F5" stroke-width="0.75" stroke-linecap="round" stroke-linejoin="round"/>
<path d="M54.71 66.89C54.71 66.89 51.29 71.63 46.53 73.71" stroke="#F5F5F5" stroke-width="0.75" stroke-linecap="round" stroke-linejoin="round"/>
<path d="M97.02 23.81C95.71 23.81 94.11 23.28 93.88 21.79C93.73 20.76 93.75 20.18 93.98 19.69C94.1 19.45 94.13 19.25 94.08 19.15C93.97 18.92 93.39 18.8 92.92 18.71C92.08 18.54 91.5 17.7 91.47 16.63C91.43 15.54 92 14.28 93.34 13.92C93.79 13.8 94.26 13.73 94.74 13.73C97.64 13.73 100.57 16.11 100.67 17.2C101.05 21.1 99.73 22.76 98.55 23.49C98.21 23.7 97.65 23.82 97.02 23.82V23.81Z" fill="#F5F5F5"/>
<path d="M94.74 14.1C97.61 14.1 100.23 16.45 100.3 17.23C100.37 17.93 100.82 21.65 98.36 23.16C98.08 23.33 97.58 23.44 97.02 23.44C95.85 23.44 94.44 22.98 94.25 21.73C94.1 20.76 94.14 20.24 94.32 19.85C94.86 18.71 93.92 18.53 92.99 18.34C91.46 18.03 91.34 14.85 93.44 14.28C93.88 14.16 94.31 14.11 94.74 14.11M94.74 13.36C94.23 13.36 93.72 13.43 93.24 13.56C91.7 13.98 91.06 15.41 91.1 16.65C91.14 17.9 91.84 18.88 92.84 19.08C93.12 19.14 93.56 19.23 93.73 19.32C93.73 19.36 93.7 19.43 93.65 19.53C93.39 20.09 93.35 20.74 93.51 21.84C93.77 23.57 95.56 24.18 97.02 24.18C97.43 24.18 98.2 24.13 98.75 23.79C100.02 23.01 101.45 21.24 101.06 17.22V17.15C100.93 15.9 97.94 13.34 94.75 13.34L94.74 13.36Z" fill="#FF69CC"/>
<path d="M45.12 138.13C44.25 138.13 43.51 137.54 43.32 136.7C43.18 136.11 42.74 135.76 42.23 135.76H41.53C41.01 135.76 40.57 136.11 40.46 136.62C40.25 137.54 39.51 138.14 38.64 138.14H37.45C36.88 138.14 36.35 137.88 36 137.43C35.65 136.98 35.52 136.4 35.66 135.85L38.33 124.88C38.53 124.05 39.27 123.47 40.13 123.47H43.77C44.64 123.47 45.38 124.06 45.57 124.9L48.1 135.87C48.23 136.42 48.1 136.99 47.75 137.44C47.4 137.89 46.87 138.14 46.3 138.14H45.13L45.12 138.13ZM42.18 131.74L41.88 130.4L41.57 131.74H42.18Z" fill="#FF69CC"/>
<path d="M43.76 123.83C44.45 123.83 45.04 124.3 45.2 124.97L47.73 135.94C47.94 136.86 47.24 137.75 46.29 137.75H45.12C44.43 137.75 43.84 137.28 43.68 136.61L43.66 136.52C43.51 135.85 42.91 135.38 42.22 135.38H41.52C40.83 135.38 40.23 135.86 40.08 136.53L40.06 136.6C39.91 137.27 39.31 137.75 38.62 137.75H37.43C36.47 137.75 35.77 136.86 36 135.93L38.67 124.96C38.83 124.3 39.42 123.83 40.1 123.83H43.74M41.08 132.11H42.63L41.86 128.71L41.08 132.11ZM43.74 123.08H40.1C39.07 123.08 38.18 123.78 37.94 124.78L35.27 135.75C35.11 136.42 35.26 137.11 35.68 137.65C36.1 138.19 36.74 138.5 37.43 138.5H38.62C39.67 138.5 40.56 137.79 40.79 136.77L40.81 136.7C40.89 136.37 41.18 136.14 41.52 136.14H42.22C42.56 136.14 42.85 136.37 42.93 136.7L42.95 136.79C43.18 137.81 44.08 138.51 45.12 138.51H46.29C46.97 138.51 47.61 138.2 48.03 137.67C48.45 137.14 48.61 136.45 48.46 135.78L45.93 124.81C45.7 123.79 44.8 123.09 43.76 123.09L43.74 123.08Z" fill="#F5F5F5"/>
<path d="M57.87 138.13C56.85 138.13 56.02 137.3 56.02 136.28V131.97C55.69 132.26 55.26 132.42 54.8 132.42C54.34 132.42 53.92 132.26 53.59 131.97V136.27C53.59 137.29 52.76 138.12 51.74 138.12H50.5C49.48 138.12 48.65 137.29 48.65 136.27V125.3C48.65 124.28 49.48 123.45 50.5 123.45H52.24C52.89 123.45 53.51 123.8 53.84 124.37C54.04 124.71 54.39 124.91 54.79 124.91C55.19 124.91 55.54 124.71 55.74 124.37C56.07 123.8 56.69 123.45 57.34 123.45H59.11C60.13 123.45 60.96 124.28 60.96 125.3V136.27C60.96 137.29 60.13 138.12 59.11 138.12H57.87V138.13Z" fill="#FF69CC"/>
<path d="M59.11 123.83C59.92 123.83 60.59 124.49 60.59 125.31V136.28C60.59 137.09 59.93 137.76 59.11 137.76H57.87C57.06 137.76 56.39 137.1 56.39 136.28V130.78L56.07 131.32C55.78 131.8 55.29 132.04 54.8 132.04C54.31 132.04 53.81 131.8 53.53 131.31L53.22 130.78V136.28C53.22 137.09 52.56 137.76 51.74 137.76H50.5C49.69 137.76 49.02 137.1 49.02 136.28V125.31C49.02 124.5 49.68 123.83 50.5 123.83H52.24C52.76 123.83 53.25 124.11 53.51 124.56C53.79 125.05 54.29 125.29 54.78 125.29C55.27 125.29 55.77 125.05 56.05 124.56C56.32 124.1 56.8 123.83 57.32 123.83H59.09M59.09 123.08H57.32C56.53 123.08 55.8 123.5 55.4 124.18C55.21 124.51 54.9 124.54 54.77 124.54C54.64 124.54 54.33 124.51 54.14 124.18C53.74 123.5 53.01 123.08 52.22 123.08H50.48C49.25 123.08 48.25 124.08 48.25 125.31V136.28C48.25 137.51 49.25 138.51 50.48 138.51H51.72C52.95 138.51 53.95 137.51 53.95 136.28V132.64C54.21 132.74 54.49 132.8 54.78 132.8C55.07 132.8 55.36 132.74 55.62 132.64V136.28C55.62 137.51 56.62 138.51 57.85 138.51H59.09C60.32 138.51 61.32 137.51 61.32 136.28V125.31C61.32 124.08 60.32 123.08 59.09 123.08Z" fill="#F5F5F5"/>
<path d="M66.93 138.34C65.58 138.34 64.36 137.63 63.33 136.23C62.32 134.86 61.81 132.94 61.81 130.51C61.81 129.32 62.03 128.16 62.46 127.06C62.89 125.95 63.51 125.03 64.28 124.33C65.08 123.6 66.07 123.23 67.2 123.23C68.58 123.23 69.79 123.99 70.8 125.49C71.77 126.94 72.27 128.69 72.27 130.69C72.27 132.93 71.78 134.77 70.82 136.18C69.83 137.63 68.53 138.36 66.95 138.36L66.93 138.34ZM67.02 129.33C66.93 129.33 66.8 129.36 66.65 129.58C66.51 129.79 66.44 130.07 66.44 130.42C66.44 130.77 66.51 131.05 66.65 131.26C66.79 131.48 66.92 131.5 67.02 131.5C67.12 131.5 67.26 131.47 67.4 131.26C67.54 131.05 67.61 130.77 67.61 130.42C67.61 130.07 67.54 129.8 67.4 129.58C67.26 129.36 67.12 129.33 67.02 129.33Z" fill="#FF69CC"/>
<path d="M67.18 123.59C68.43 123.59 69.53 124.29 70.46 125.68C71.4 127.08 71.87 128.74 71.87 130.67C71.87 132.84 71.41 134.6 70.49 135.94C69.57 137.28 68.38 137.96 66.93 137.96C65.7 137.96 64.59 137.31 63.63 136C62.66 134.69 62.18 132.86 62.18 130.5C62.18 129.35 62.39 128.25 62.8 127.19C63.21 126.13 63.79 125.27 64.52 124.6C65.26 123.93 66.14 123.6 67.18 123.6M67.02 131.88C67.3 131.88 67.53 131.74 67.71 131.47C67.89 131.2 67.98 130.85 67.98 130.42C67.98 129.99 67.89 129.65 67.71 129.38C67.53 129.1 67.3 128.96 67.02 128.96C66.74 128.96 66.53 129.1 66.34 129.38C66.15 129.66 66.06 130 66.06 130.42C66.06 130.84 66.15 131.2 66.33 131.47C66.51 131.74 66.74 131.88 67.01 131.88M67.17 122.85C65.94 122.85 64.88 123.25 64 124.05C63.18 124.79 62.54 125.76 62.08 126.92C61.63 128.06 61.41 129.27 61.41 130.51C61.41 133.02 61.95 135.02 63.01 136.46C64.12 137.96 65.44 138.73 66.92 138.73C68.63 138.73 70.04 137.94 71.1 136.39C72.1 134.92 72.61 133.01 72.61 130.69C72.61 128.62 72.09 126.8 71.08 125.29C70 123.68 68.69 122.86 67.17 122.86V122.85ZM67.01 131.13C67.01 131.13 66.99 131.11 66.95 131.05C66.85 130.9 66.8 130.69 66.8 130.42C66.8 130.15 66.85 129.94 66.95 129.79C66.99 129.73 67.02 129.71 67.02 129.7C67.02 129.7 67.04 129.73 67.07 129.78C67.17 129.93 67.22 130.14 67.22 130.41C67.22 130.68 67.17 130.9 67.07 131.04C67.03 131.1 67 131.12 67 131.12L67.01 131.13Z" fill="#F5F5F5"/>
<path d="M81.38 138.13C80.09 138.13 79.01 137.16 78.89 135.87C78.77 134.7 78.66 134.22 78.59 134.02C78.37 133.43 78.14 133.17 77.95 133.06V135.66C77.95 137.02 76.84 138.13 75.48 138.13C74.12 138.13 73.01 137.02 73.01 135.66V125.92C73.01 124.56 74.12 123.45 75.48 123.45H77.57C79.06 123.45 80.04 123.5 80.56 123.6C81.12 123.71 81.62 123.96 82.03 124.36C82.44 124.74 82.76 125.26 83 125.91C83.24 126.54 83.36 127.22 83.36 127.93C83.36 128.9 83.19 129.74 82.86 130.41C82.71 130.71 82.5 131.31 82.76 131.88C83.22 132.86 83.57 134 83.81 135.26C83.94 135.96 83.75 136.68 83.29 137.23C82.81 137.81 82.11 138.14 81.37 138.14L81.38 138.13ZM77.95 128.98C78.1 128.95 78.21 128.89 78.28 128.81C78.37 128.71 78.47 128.48 78.47 128C78.47 127.38 78.25 127.17 77.95 127.1V128.98Z" fill="#FF69CC"/>
<path d="M77.57 123.83C79.02 123.83 80 123.88 80.49 123.98C80.98 124.08 81.41 124.3 81.78 124.64C82.14 124.98 82.44 125.45 82.66 126.05C82.88 126.64 82.99 127.27 82.99 127.93C82.99 128.85 82.84 129.62 82.53 130.24C82.25 130.81 82.16 131.46 82.43 132.04C82.88 133 83.22 134.1 83.45 135.33C83.69 136.6 82.67 137.76 81.38 137.76C80.28 137.76 79.37 136.93 79.26 135.83C79.18 135.06 79.08 134.26 78.94 133.89C78.63 133.03 78.19 132.6 77.63 132.6H77.58V135.66C77.58 136.82 76.64 137.75 75.49 137.75C74.34 137.75 73.4 136.81 73.4 135.66V125.92C73.4 124.76 74.34 123.83 75.49 123.83H77.58M77.58 129.38H77.69C78.1 129.38 78.39 129.27 78.58 129.05C78.76 128.83 78.85 128.48 78.85 128C78.85 127.13 78.45 126.7 77.65 126.7H77.58V129.38ZM77.58 123.08H75.49C73.92 123.08 72.65 124.36 72.65 125.92V135.66C72.65 137.23 73.93 138.5 75.49 138.5C77.05 138.5 78.33 137.22 78.33 135.66V134.48C78.38 134.75 78.45 135.18 78.52 135.9C78.67 137.38 79.9 138.5 81.39 138.5C82.25 138.5 83.05 138.12 83.6 137.46C84.13 136.82 84.35 135.99 84.2 135.18C83.96 133.89 83.59 132.73 83.12 131.72C82.92 131.29 83.09 130.82 83.21 130.58C83.57 129.86 83.75 128.97 83.75 127.94C83.75 127.19 83.62 126.47 83.37 125.79C83.11 125.09 82.75 124.52 82.3 124.1C81.83 123.66 81.28 123.37 80.64 123.25C80.09 123.14 79.09 123.09 77.57 123.09L77.58 123.08Z" fill="#F5F5F5"/>
<path d="M86.24 138.13C85.22 138.13 84.39 137.3 84.39 136.28V125.31C84.39 124.29 85.22 123.46 86.24 123.46H91.15C92.17 123.46 93 124.29 93 125.31V125.85C93 126.87 92.17 127.7 91.15 127.7H89.33V128.67H90.04C91.06 128.67 91.89 129.5 91.89 130.52V131.06C91.89 132.08 91.06 132.91 90.04 132.91H89.33V133.88H91.15C92.17 133.88 93 134.71 93 135.73V136.27C93 137.29 92.17 138.12 91.15 138.12H86.24V138.13Z" fill="#FF69CC"/>
<path d="M91.15 123.83C91.96 123.83 92.63 124.49 92.63 125.31V125.85C92.63 126.66 91.97 127.33 91.15 127.33H88.96V129.05H90.05C90.86 129.05 91.53 129.71 91.53 130.53V131.07C91.53 131.88 90.87 132.55 90.05 132.55H88.96V134.27H91.15C91.96 134.27 92.63 134.93 92.63 135.75V136.29C92.63 137.1 91.97 137.77 91.15 137.77H86.24C85.43 137.77 84.76 137.11 84.76 136.29V125.32C84.76 124.51 85.42 123.84 86.24 123.84H91.15M91.15 123.09H86.24C85.01 123.09 84.01 124.09 84.01 125.32V136.29C84.01 137.52 85.01 138.52 86.24 138.52H91.15C92.38 138.52 93.38 137.52 93.38 136.29V135.75C93.38 134.52 92.38 133.52 91.15 133.52H89.71V133.3H90.05C91.28 133.3 92.28 132.3 92.28 131.07V130.53C92.28 129.3 91.28 128.3 90.05 128.3H89.71V128.08H91.15C92.38 128.08 93.38 127.08 93.38 125.85V125.31C93.38 124.08 92.38 123.08 91.15 123.08V123.09Z" fill="#F5F5F5"/>
</g>
<defs>
<clipPath id="clip0_115_676">
<rect width="101.12" height="138.71" fill="white"/>
</clipPath>
</defs>
</svg>
