<svg width="165" height="164" viewBox="0 0 165 164" fill="none" xmlns="http://www.w3.org/2000/svg">
<g id="a" clip-path="url(#clip0_101_328)">
<g id="Group">
<g id="Vector">
<path d="M23.1628 8.50894L33.3786 14.3227C46.6149 23.4581 43.4564 35.4546 43.4564 35.4546C43.4564 35.4546 34.0066 41.6871 18.0676 36.1262L7.82575 30.7779C18.5651 33.6547 28.4801 27.3604 28.4801 27.3604C28.4801 27.3604 29.6998 16.0214 23.1371 8.9793" fill="#F5F5F5"/>
<path d="M23.1628 8.50894L33.3786 14.3227C46.6149 23.4581 43.4564 35.4546 43.4564 35.4546C43.4564 35.4546 34.0066 41.6871 18.0676 36.1262L7.82575 30.7779C18.5651 33.6547 28.4801 27.3604 28.4801 27.3604C28.4801 27.3604 29.6998 16.0214 23.1371 8.9793" stroke="#FF69CC" stroke-width="2.61" stroke-linecap="round" stroke-linejoin="round"/>
</g>
<path id="Vector_2" d="M21.3712 24.1893C21.3712 24.1893 90.513 53.3107 154.098 126.173" stroke="#FF69CC" stroke-width="2.61" stroke-linecap="round" stroke-linejoin="round"/>
<path id="Vector_3" d="M154.099 126.178L121.123 117.041C135.195 113.307 144.107 105.925 148.024 95.0112L154.094 126.178L154.099 126.178Z" fill="#F5F5F5" stroke="#FF69CC" stroke-width="2.61" stroke-linecap="round" stroke-linejoin="round"/>
</g>
<g id="Group_2">
<g id="Vector_4">
<path d="M9.89242 116.269L19.0143 116.258C31.4479 117.325 32.3737 126.641 32.3737 126.641C32.3737 126.641 29.958 134.462 17.0754 136.846L8.11433 137.179C16.4569 134.988 20.724 126.93 20.724 126.93C20.724 126.93 17.184 118.819 10.0532 116.591" fill="#F5F5F5"/>
<path d="M9.89242 116.269L19.0143 116.258C31.4479 117.325 32.3737 126.641 32.3737 126.641C32.3737 126.641 29.958 134.462 17.0754 136.846L8.11433 137.179C16.4569 134.988 20.724 126.93 20.724 126.93C20.724 126.93 17.184 118.819 10.0532 116.591" stroke="#FF69CC" stroke-width="2.03" stroke-linecap="round" stroke-linejoin="round"/>
</g>
<path id="Vector_5" d="M14.714 127.532C14.714 127.532 72.5218 120.574 143.406 145.24" stroke="#FF69CC" stroke-width="2.03" stroke-linecap="round" stroke-linejoin="round"/>
<path id="Vector_6" d="M143.406 145.24L117.662 151.764C123.973 143.34 127.2 134.953 127.326 126.57L143.401 145.245L143.406 145.24Z" fill="#F5F5F5" stroke="#FF69CC" stroke-width="2.03" stroke-linecap="round" stroke-linejoin="round"/>
</g>
<path id="Vector_7" d="M143.036 144.144C141.923 147.932 132.45 154.263 137.889 156.298C143.328 158.333 149.626 154.935 151.961 148.706C154.296 142.478 151.772 135.776 146.338 133.741C140.898 131.706 144.132 140.421 143.04 144.144L143.036 144.144Z" fill="#F5F5F5"/>
<path id="Vector_8" d="M153.93 123.728C151.343 126.714 139.21 127.495 144.007 132.44C148.804 137.384 156.565 137.635 161.338 133C166.112 128.364 166.09 120.606 161.288 115.661C156.486 110.717 156.471 120.797 153.93 123.728Z" fill="#F5F5F5"/>
<path id="Vector_9" d="M152.262 130.752C152.262 130.752 157.117 130.599 157.84 126" stroke="#FF69CC" stroke-width="2.61" stroke-linecap="round" stroke-linejoin="round"/>
<path id="Vector_10" d="M144.323 149.639C144.323 149.639 148.265 148.007 147.431 144.004" stroke="#FF69CC" stroke-width="2.3" stroke-linecap="round" stroke-linejoin="round"/>
</g>
<defs>
<clipPath id="clip0_101_328">
<rect width="155.618" height="154.468" fill="white" transform="translate(0 9.24817) rotate(-3.40701)"/>
</clipPath>
</defs>
</svg>
