<svg width="72" height="71" viewBox="0 0 72 71" fill="none" xmlns="http://www.w3.org/2000/svg">
<g id="a" clip-path="url(#clip0_304_1314)">
<g id="Group">
<path id="Vector" d="M14.94 68.6398C14.03 68.6398 13.17 68.2798 12.54 67.6298C9.22001 64.2198 -1.27999 51.9298 3.15001 36.8498C3.57001 35.4298 4.89001 34.4498 6.37001 34.4498C6.58001 34.4498 6.80001 34.4698 7.02001 34.5098C7.79001 34.6598 8.59001 34.7398 9.39001 34.7398C11.3 34.7398 13.32 34.2998 15.39 33.4298C15.81 33.2498 16.25 33.1698 16.7 33.1698C17.59 33.1698 18.45 33.5298 19.08 34.1598C19.15 34.2298 19.22 34.3098 19.28 34.3798C19.62 34.2198 19.96 34.0498 20.29 33.8798C21.19 33.3998 22.04 32.8798 22.8 32.3398C23.69 28.9898 25.01 25.7898 26.3 22.6898L26.87 21.3098C26.89 21.2498 26.87 21.1898 26.87 21.1298C26.83 20.5398 26.62 19.7898 26.42 19.1298C26.21 18.4698 25.98 17.7898 25.75 17.1198L25.6 16.6898C25.49 16.3398 25.38 16.0298 25.28 15.7098C24.34 12.8698 23.05 8.97982 24.84 5.58982C26.13 3.38982 28.55 2.06982 31.2 2.06982C32.19 2.06982 33.13 2.24982 34 2.60982C35.95 3.38982 37.67 4.93982 39.08 7.20982C41.33 11.0298 42.22 15.3098 42.6 19.1598C43.87 18.3998 45.18 17.7498 46.5 17.2198C50.04 15.8198 53.57 15.1098 57.01 15.1098C58.14 15.1098 59.27 15.1898 60.36 15.3498C60.42 15.3498 60.47 15.3698 60.53 15.3798C63.3 16.0198 65.61 18.2998 66.69 21.4798C67.36 23.5298 67.22 25.5398 66.35 27.0898C67.2 27.7098 67.89 28.5098 68.37 29.4898C69.54 31.8798 69.14 34.8898 67.29 37.7598C67.27 37.7898 67.26 37.8098 67.24 37.8298C67.97 38.5098 68.58 39.3398 69.04 40.2698C70.07 42.3598 70.17 44.6898 69.32 46.6498C69.08 47.1698 68.76 47.6498 68.39 48.0598C68.82 48.7998 69.11 49.6098 69.22 50.4498C70.09 55.5198 63.61 57.6998 61.47 58.4098C59.11 59.1398 56.84 59.5798 54.68 59.7398C51.86 60.6298 48.85 61.0698 45.69 61.0698C42.76 61.0698 39.84 60.6898 36.99 59.9598C36.79 59.8998 36.6 59.8198 36.43 59.7298C36.27 59.7298 36.08 59.6898 35.94 59.6498C34.37 59.2398 32.86 58.5298 31.33 57.4798C31.29 57.4798 31.24 57.4798 31.18 57.4798C31.11 57.4998 31.04 57.5198 30.97 57.5398C30.02 57.7198 29.16 57.9398 28.36 58.1998V58.2298C28.29 59.3098 27.7 60.2898 26.78 60.8598C24.35 62.3698 19.88 65.2798 17.24 67.7398C16.62 68.3198 15.8 68.6398 14.95 68.6398H14.94Z" fill="#7062F1"/>
<path id="Vector_2" d="M31.19 4.15C31.88 4.15 32.57 4.28 33.2 4.54C35 5.25 36.32 6.73 37.31 8.32C39.9 12.73 40.57 17.93 40.77 22.94C42.76 21.4 44.93 20.1 47.27 19.16C50.35 17.94 53.68 17.2 57 17.2C58.02 17.2 59.04 17.27 60.05 17.42C62.37 17.96 63.98 20.01 64.71 22.17C65.19 23.65 65.22 25.49 64.06 26.71C63.59 27.21 62.98 27.52 62.38 27.82C64.09 28 65.66 28.74 66.49 30.42C67.48 32.44 66.68 34.86 65.53 36.64C65.21 37.08 64.86 37.53 64.27 37.81C64.1 37.88 63.84 37.99 63.58 38.09C66.63 38.88 68.71 42.81 67.4 45.84C67.07 46.56 66.45 47.17 65.71 47.49C65.55 47.55 65.38 47.6 65.21 47.65C66.26 48.36 66.99 49.52 67.15 50.78C67.73 53.98 63.18 55.66 60.8 56.46C58.64 57.13 56.4 57.58 54.14 57.72C54.12 57.74 54.11 57.76 54.08 57.77C51.41 58.62 48.54 59.01 45.67 59.01C42.8 59.01 40.11 58.64 37.5 57.96C37.3 57.9 37.31 57.68 37.43 57.58C37.2 57.53 36.96 57.47 36.73 57.41C36.73 57.44 36.75 57.47 36.74 57.5C36.71 57.6 36.62 57.66 36.53 57.66C36.51 57.66 36.49 57.66 36.47 57.66C34.95 57.26 33.57 56.54 32.3 55.65C32.21 55.6 32.12 55.56 32.02 55.5C31.74 55.44 31.44 55.41 31.11 55.41C30.94 55.41 30.77 55.41 30.59 55.43C30.59 55.47 30.56 55.5 30.52 55.51C28.88 55.82 27.26 56.28 25.75 56.98C25.76 56.99 25.78 57 25.79 57.02C26.47 57.58 26.41 58.64 25.66 59.11C23.22 60.63 18.59 63.64 15.8 66.23C15.55 66.46 15.24 66.58 14.92 66.58C14.59 66.58 14.25 66.45 14 66.19C10.86 62.97 1.00001 51.45 5.12001 37.44C5.28001 36.89 5.79001 36.53 6.35001 36.53C6.43001 36.53 6.52001 36.53 6.60001 36.55C7.51001 36.73 8.44001 36.82 9.37001 36.82C11.59 36.82 13.85 36.32 16.17 35.35C16.34 35.28 16.51 35.25 16.68 35.25C17.36 35.25 17.97 35.79 17.97 36.53C17.97 36.72 17.97 36.94 17.97 37.15C19.09 36.75 20.19 36.27 21.24 35.72C22.42 35.09 23.57 34.37 24.61 33.57C25.47 30.06 26.89 26.64 28.26 23.34L28.77 22.11C28.93 21.74 28.95 21.42 28.93 21.02C28.88 20.22 28.64 19.37 28.39 18.54C28.13 17.71 27.84 16.87 27.55 16.03C26.64 13.17 25.11 9.49 26.66 6.58C27.58 5.02 29.39 4.17 31.18 4.17M66.19 45.83C66.45 45.47 66.61 45.07 66.68 44.63C66.54 45.05 66.37 45.46 66.19 45.83ZM60.67 55.76C62.21 55.21 65.05 54.1 66 52.48C64.78 53.69 62.54 54.89 60.67 55.76ZM43.73 58.27C42.36 58.27 40.96 58.19 39.55 58C41.05 58.26 42.56 58.37 44.08 58.37C46.56 58.37 49.06 58.09 51.52 57.73C51.39 57.73 51.26 57.71 51.14 57.69C48.97 57.98 46.42 58.27 43.73 58.27ZM31.2 0C27.82 0 24.72 1.71 23.1 4.46C23.07 4.51 23.04 4.57 23.01 4.62C20.81 8.78 22.32 13.34 23.32 16.36C23.42 16.67 23.52 16.98 23.62 17.27C23.62 17.3 23.64 17.33 23.65 17.36L23.81 17.81C24.04 18.49 24.26 19.12 24.46 19.75C24.54 20.02 24.7 20.55 24.78 20.96L24.46 21.73L24.4 21.89C23.19 24.83 21.94 27.85 21.03 31.04C20.58 31.34 20.09 31.63 19.59 31.9C18.73 31.37 17.74 31.08 16.72 31.08C15.99 31.08 15.28 31.22 14.61 31.51C12.8 32.27 11.05 32.66 9.42001 32.66C8.76001 32.66 8.09001 32.6 7.45001 32.47C7.10001 32.4 6.75001 32.37 6.40001 32.37C4.00001 32.37 1.86001 33.97 1.19001 36.26C-3.55999 52.42 7.56001 65.46 11.08 69.07C12.1 70.11 13.51 70.71 14.97 70.71C16.35 70.71 17.66 70.19 18.67 69.25C20.51 67.54 23.87 65.12 27.9 62.62C28.95 61.97 29.73 60.98 30.14 59.85C30.39 59.79 30.64 59.73 30.9 59.68C32.39 60.61 33.88 61.27 35.45 61.68C35.57 61.71 35.7 61.74 35.84 61.76C36.02 61.84 36.21 61.91 36.4 61.96C36.43 61.96 36.45 61.97 36.48 61.98C39.5 62.76 42.6 63.16 45.7 63.16C49.01 63.16 52.17 62.71 55.09 61.81C57.34 61.62 59.67 61.16 62.05 60.42C62.08 60.42 62.11 60.4 62.15 60.39C68.97 58.1 72.05 54.66 71.29 50.14C71.2 49.51 71.04 48.89 70.82 48.3C70.96 48.06 71.09 47.82 71.21 47.56C71.22 47.53 71.24 47.5 71.25 47.48C72.34 44.96 72.22 42 70.93 39.36C70.61 38.72 70.24 38.11 69.82 37.56C71.39 34.46 71.56 31.26 70.27 28.59C69.89 27.82 69.42 27.13 68.87 26.53C69.39 24.8 69.35 22.83 68.71 20.86C67.38 16.95 64.52 14.16 61.04 13.36C60.93 13.33 60.81 13.31 60.7 13.3C59.51 13.13 58.29 13.04 57.06 13.04C53.36 13.04 49.58 13.8 45.8 15.29C45.3 15.49 44.81 15.7 44.32 15.93C43.77 12.7 42.78 9.31 40.94 6.19C40.92 6.16 40.91 6.14 40.89 6.11C39.25 3.46 37.2 1.63 34.81 0.67C33.64 0.23 32.44 0 31.2 0Z" fill="#7062F1"/>
</g>
<g id="Group_2">
<path id="Vector_3" d="M29.41 5.12C34.25 2.75 40.37 8.45 40.6 24.01C41.03 23.42 41.84 22.67 42.81 22.44C48.17 17.51 58.51 17.82 58.39 17.55C63.63 17.67 67.29 24.97 61.25 28.14C62.92 27.93 65.35 28.1 66.41 31.02C67.78 34.78 62.68 38.41 62.68 38.41C62.68 38.41 66.19 38.93 66.91 42.09C67.44 44.43 65.34 47.49 64.9 47.62C64.9 47.62 67.37 49.21 66.87 51.17C66.19 53.87 57.55 57.07 57.55 57.07C57.55 57.07 54.86 57.19 51.15 57.67C45.84 58.37 38.27 59.12 32.02 55.5C27.73 54.55 17.19 61.31 17.19 61.31C17.19 61.31 16.55 63.65 12.45 54.56C6.94 42.35 9.49 38.53 9.49 38.53C16.18 40.46 24.94 34 24.94 34C24.94 34 27.23 27.83 29.28 22.16C30.17 19.68 22.89 8.3 29.41 5.11V5.12Z" fill="#F5F5F5"/>
<g id="Group_3">
<path id="Vector_4" d="M37.62 57.55C42.97 59.01 48.59 58.18 53.97 57.34C54.23 57.29 54.34 57.67 54.08 57.76C48.82 59.43 42.81 59.34 37.49 57.96C37.22 57.88 37.32 57.47 37.61 57.55H37.62Z" fill="#3C3C3B"/>
<path id="Vector_5" d="M51.77 22.5098C49.19 22.1098 45.94 22.0998 44.3 24.4498C43.56 25.5298 43.35 26.9398 43.54 28.2498C43.69 29.1598 43.99 30.1998 44.7 30.7698C44.96 30.9398 45.2 30.8698 45.48 30.8898C46.84 30.8898 48.24 30.6898 49.62 30.4598C51 30.2298 52.37 29.9398 53.74 29.6098C56.44 28.9398 59.16 28.1598 61.67 26.9898C62.24 26.6998 62.85 26.4398 63.29 25.9798C64.13 25.0698 64.06 23.6498 63.68 22.5098C63.08 20.7498 61.71 18.9498 59.84 18.5298C59.2 18.4198 58.49 18.3798 57.83 18.3598C51.6 18.1998 45.38 20.4598 40.62 24.4798C40.28 24.7798 39.7 24.5098 39.71 24.0598C39.58 18.8698 39.05 13.4298 36.4 8.88982C35.53 7.47982 34.36 6.15982 32.82 5.54982C31.02 4.79982 28.62 5.39982 27.59 7.09982C25.98 10.0798 28.5 15.1398 29.36 18.2498C29.71 19.5398 30.26 21.1298 29.69 22.4798C29.35 23.2698 28.48 25.3498 28.14 26.1598C24.59 34.4598 22.3 43.2398 28.39 51.0098C30.54 53.7198 33.19 56.2898 36.61 57.2498C36.73 57.2798 36.79 57.4098 36.76 57.5198C36.73 57.6398 36.61 57.6998 36.49 57.6698C32.95 56.7498 30.15 54.1698 27.89 51.3998C25.63 48.5798 24.16 45.0898 23.89 41.4698C23.38 35.1298 25.92 29.0698 28.29 23.3398L28.8 22.1098C28.96 21.7398 28.98 21.4198 28.96 21.0198C28.91 20.2198 28.67 19.3698 28.42 18.5398C28.16 17.7098 27.87 16.8698 27.58 16.0298C26.67 13.1698 25.14 9.48982 26.69 6.57982C27.96 4.40982 30.95 3.61982 33.22 4.55982C35.02 5.26982 36.34 6.74982 37.33 8.33982C40.11 13.0698 40.68 18.7098 40.82 24.0598L39.91 23.6398C42.12 21.7898 44.61 20.2598 47.29 19.1798C51.31 17.5898 55.76 16.8098 60.07 17.4298C62.39 17.9698 64 20.0198 64.73 22.1798C65.21 23.6598 65.24 25.4998 64.08 26.7198C63.54 27.2998 62.82 27.6198 62.13 27.9598C58.17 29.7398 54.01 30.6798 49.77 31.3898C48.36 31.5998 46.94 31.7798 45.48 31.7698C45.06 31.7698 44.54 31.7398 44.22 31.4798C42.78 30.2798 42.52 27.8698 42.85 26.1398C43.28 23.7898 45.23 22.2198 47.54 21.9198C48.99 21.6998 50.44 21.8298 51.84 22.0998C52.11 22.1598 52.05 22.5598 51.77 22.5198V22.5098Z" fill="#3C3C3B"/>
<path id="Vector_6" d="M46.58 31.7097C43.83 32.0797 42.37 33.9897 42.91 36.7297C43.08 38.0897 43.69 39.5197 45.05 40.0097C46.84 40.6697 48.94 40.1897 50.83 40.0197C52.82 39.7797 54.8 39.4697 56.77 39.0897C59.22 38.6097 61.65 38.0297 63.94 37.0597C65.06 36.3597 65.56 34.7697 65.8 33.5097C66.42 30.2497 63.93 28.5397 60.89 28.7797C59.94 28.8397 58.98 29.0297 58.04 29.3197C57.5 29.4797 57.24 28.6797 57.76 28.4897C60.63 27.3797 64.9 27.1997 66.49 30.4097C67.48 32.4297 66.68 34.8497 65.53 36.6297C65.21 37.0697 64.86 37.5197 64.27 37.7997C63.91 37.9597 63.19 38.2297 62.83 38.3597C58.95 39.6397 54.96 40.3497 50.93 40.8797C47.01 41.3697 42.78 41.9397 42.2 36.8097C41.87 34.5497 42.72 32.4097 45.02 31.6697C45.52 31.4997 46.02 31.3997 46.56 31.3797C46.65 31.3797 46.72 31.4397 46.72 31.5297C46.72 31.6197 46.66 31.6897 46.57 31.6897L46.58 31.7097Z" fill="#3C3C3B"/>
<path id="Vector_7" d="M61.3 38.1098C65.47 36.9698 69.02 42.0898 67.41 45.8398C67.08 46.5598 66.46 47.1698 65.72 47.4898C64.6 47.8998 63.47 48.0898 62.33 48.3598C57.86 49.2898 53.3 50.1698 48.71 49.8498C47.76 49.7498 46.81 49.6098 45.94 49.1698C44.39 48.1798 43.55 45.8198 43.85 44.0398C44.26 42.0798 46.32 41.0898 48.1 40.6898C48.2 40.6698 48.3 40.7298 48.33 40.8398C48.35 40.9498 48.28 41.0498 48.18 41.0698C47.33 41.2798 46.49 41.6298 45.78 42.1198C43.68 43.4898 44.12 45.9698 45.38 47.7698C47.16 50.8198 58.97 48.1198 62.12 47.4298C63 47.2198 63.88 47.0098 64.74 46.7698C65.15 46.6598 65.47 46.5398 65.79 46.2898C67.39 44.9398 66.76 42.3198 65.67 40.7998C64.72 39.4198 63.12 38.6098 61.44 38.8498C60.98 38.9098 60.86 38.2398 61.3 38.1198V38.1098Z" fill="#3C3C3B"/>
<path id="Vector_8" d="M52.24 49.5498C50.35 50.1298 48.01 51.3398 48.03 53.5898C48.07 54.9398 48.96 56.2598 50.14 56.8898C50.75 57.1998 51.48 57.1698 52.15 57.2098C55 57.2398 57.87 56.6798 60.58 55.7898C62.53 55.0998 66.88 53.4298 66.3 50.9098C66.13 49.7698 65.43 48.7798 64.41 48.2498C64.26 48.1698 64.1 48.0998 63.98 48.0598C63.39 47.8498 63.67 46.9798 64.27 47.1498C65.82 47.6898 66.96 49.1598 67.16 50.7698C67.74 53.9698 63.19 55.6498 60.81 56.4498C58.01 57.3098 55.09 57.8298 52.15 57.7398C51.59 57.7098 51.02 57.6798 50.47 57.5498C49.53 57.2698 48.78 56.5398 48.27 55.7498C46.84 53.4998 47.84 51.1798 50.1 50.0398C50.75 49.6898 51.45 49.4298 52.15 49.2198C52.24 49.1898 52.33 49.2398 52.35 49.3298C52.38 49.4198 52.33 49.5098 52.24 49.5298V49.5498Z" fill="#3C3C3B"/>
</g>
<path id="Vector_9" d="M40.78 23.8597C42.18 28.9697 41.45 34.6097 38.73 39.1597C38.62 39.3497 38.33 39.1997 38.42 38.9997C39.31 37.2897 39.97 35.4797 40.32 33.5797C40.71 31.3897 40.73 29.1397 40.38 26.9497C40.23 26.0297 40.02 25.0597 39.72 24.1997C39.49 23.4897 40.54 23.1497 40.77 23.8597H40.78Z" fill="#3C3C3B"/>
<path id="Vector_10" d="M25.23 33.9896C20.83 37.5996 14.28 40.0196 9.24 39.0896C9.33 39.0696 9.29 39.0796 9.32 39.0596C8.47 40.2596 9.27 43.5896 9.58 45.0396C10.69 49.5096 14.16 60.6096 17.91 62.9896L17.26 63.4096C17.27 63.3496 17.3 63.2796 17.32 63.2296C19.36 59.8696 22.9 57.2096 26.61 55.9796C27.87 55.5596 29.18 55.2996 30.5 55.3196C30.55 55.3196 30.59 55.3596 30.59 55.4096C30.59 55.4496 30.56 55.4896 30.52 55.4996C28 55.9796 25.53 56.7996 23.42 58.2996C21.39 59.7196 19.54 61.5096 18.29 63.6596C18.29 63.6596 18.31 63.6196 18.31 63.5996L17.66 64.0196C14.5 62.6796 11.67 55.1096 10.55 51.9296C9.69 49.3596 6.3 39.9396 8.77 38.1496C8.88 38.0796 9.06 38.0096 9.23 38.0396C10.58 38.2696 11.97 38.3296 13.34 38.1896C16.12 37.9396 18.79 36.9996 21.25 35.6996C22.48 35.0496 23.69 34.2896 24.77 33.4396C25.12 33.1596 25.58 33.6596 25.22 33.9696L25.23 33.9896Z" fill="#3C3C3B"/>
</g>
<path id="Vector_11" d="M17.98 36.5202C17.98 41.2402 18.36 50.9502 25.81 57.0102C26.49 57.5702 26.43 58.6302 25.68 59.1002C23.24 60.6202 18.61 63.6302 15.82 66.2202C15.31 66.7002 14.51 66.6802 14.03 66.1802C10.89 62.9602 1.02999 51.4402 5.14999 37.4302C5.33999 36.7902 5.97999 36.4102 6.62999 36.5402C9.71999 37.1402 12.91 36.7202 16.19 35.3402C17.04 34.9802 17.98 35.6002 17.98 36.5202Z" fill="#3C3C3B"/>
<g id="Group_4">
<path id="Vector_12" d="M15.17 63.3401C16.4734 63.3401 17.53 62.2835 17.53 60.9801C17.53 59.6767 16.4734 58.6201 15.17 58.6201C13.8666 58.6201 12.81 59.6767 12.81 60.9801C12.81 62.2835 13.8666 63.3401 15.17 63.3401Z" fill="#E69636"/>
<path id="Vector_13" d="M15.99 60.7599C15.99 60.7599 16.38 60.4399 16 60.0399C15.75 59.7799 15.34 59.8899 15.34 59.8899L15.25 59.4399L14.98 59.4899L15.06 59.9099L14.85 59.9499L14.77 59.5299L14.49 59.5799L14.58 60.0299L14.01 60.1399L14.07 60.4399C14.07 60.4399 14.41 60.3099 14.45 60.5199L14.67 61.6899C14.67 61.6899 14.69 61.8499 14.55 61.8899C14.41 61.9299 14.37 61.9199 14.37 61.9199V62.2599L14.94 62.1499L15.03 62.6199L15.31 62.5699L15.22 62.1099L15.46 62.0599L15.55 62.5099L15.82 62.4599L15.74 62.0299C15.74 62.0299 16.33 61.9699 16.45 61.6199C16.57 61.2699 16.51 60.8099 16.01 60.7699L15.99 60.7599ZM14.91 60.2999C15.09 60.2599 15.54 60.1599 15.62 60.4699C15.7 60.7799 15.01 60.8399 15.01 60.8399L14.91 60.2999ZM15.19 61.7599L15.07 61.1299C15.28 61.0799 15.81 60.9699 15.9 61.3299C15.99 61.6899 15.19 61.7599 15.19 61.7599Z" fill="#3C3C3B"/>
</g>
</g>
<defs>
<clipPath id="clip0_304_1314">
<rect width="71.95" height="70.72" fill="white"/>
</clipPath>
</defs>
</svg>
