<svg width="241" height="283" viewBox="0 0 241 283" fill="none" xmlns="http://www.w3.org/2000/svg">
<g clip-path="url(#clip0_139_786)">
<path d="M23.4889 91.0304L101.876 104.027" stroke="#FF69CC" stroke-width="0.93" stroke-linecap="round" stroke-linejoin="round"/>
<path d="M87.9719 47.3849L97.4344 105.421L66.7989 164.108" stroke="#F5F5F5" stroke-width="0.93" stroke-linecap="round" stroke-linejoin="round"/>
<path d="M64.4751 177.974C66.801 177.244 68.8383 175.385 70.0614 172.875C73.8749 165.068 55.6289 153.833 54.8562 153.367C23.6402 125.335 49.1378 78.4801 57.711 64.7783C62.8703 56.5326 71.5386 52.9548 78.5161 50.7648C81.037 49.9736 83.4755 49.3401 85.8343 48.7151C87.8433 48.1835 89.7322 47.6895 91.4128 47.1621C94.8791 46.0741 98.2014 44.6852 98.897 41.912C100.249 36.6085 98.4555 33.9406 97.2766 32.8106C95.6084 31.2243 93.1497 30.7432 90.6888 31.5156C89.3234 31.9442 88.0456 32.7573 86.9868 33.8479C86.3131 34.5373 85.7765 35.3486 85.1996 36.189C83.616 38.5487 81.818 41.2229 76.236 42.9749C75.4857 43.2104 74.696 43.4253 73.8913 43.6449C72.9966 43.8927 72.0671 44.135 71.0918 44.4411C62.8838 47.0173 53.5167 52.9903 40.661 79.0967C23.9262 113.064 36.8302 149.398 42.9521 153.988C43.5315 154.416 44.1306 154.854 44.7344 155.308C50.1998 159.328 56.3919 163.879 56.044 170.071C55.8752 173.157 56.7912 175.655 58.6215 177.075C60.2161 178.322 62.3444 178.643 64.4751 177.974Z" fill="#FF69CC"/>
<path d="M90.8905 32.2106C89.6751 32.5921 88.4985 33.3075 87.4903 34.3492C85.0532 36.8779 84.2705 41.2115 76.4377 43.6699C74.8471 44.1691 73.1541 44.5521 71.3084 45.1314C64.0008 47.425 54.4771 52.6889 41.3172 79.4018C24.8201 112.865 37.4358 148.911 43.4055 153.384C49.3602 157.861 57.1919 162.804 56.7749 170.089C56.4344 176.146 60.4527 178.446 64.2641 177.249C66.2598 176.623 68.1878 175.045 69.4109 172.535C72.9717 165.236 54.4826 153.962 54.4826 153.962C24.2651 126.853 45.8261 82.3712 57.0866 64.3644C62.1129 56.3253 70.4272 52.5124 78.2901 50.0446C83.0318 48.5563 87.6155 47.5627 91.1868 46.4418C94.9682 45.255 97.6179 43.9288 98.179 41.7252C100.157 33.9507 95.3471 30.8118 90.9055 32.2059M90.4675 30.8104C93.1685 29.9626 95.9097 30.5034 97.7686 32.2771C99.0798 33.5139 101.048 36.4237 99.5952 42.0884C98.8091 45.2033 95.2909 46.7032 91.6145 47.857C89.9189 48.3892 88.015 48.8879 86.006 49.4195C83.6622 50.0398 81.2387 50.6686 78.7178 51.4598C71.8603 53.6121 63.3476 57.1081 58.311 65.1669C49.8399 78.7213 24.58 125.073 55.3387 152.803C57.8287 154.33 74.6706 165.082 70.7074 173.2C69.3916 175.887 67.1977 177.878 64.6768 178.669C62.306 179.414 59.93 179.038 58.1438 177.654C56.1125 176.066 55.1006 173.367 55.2888 170.028C55.6146 164.239 49.5943 159.815 44.2764 155.896C43.6726 155.443 43.0735 155.005 42.4941 154.577C38.9988 151.948 34.2906 141.096 32.4564 127.48C30.8475 115.474 30.8549 97.2734 39.9654 78.7711C52.9447 52.4281 62.4674 46.3733 70.8404 43.7453C71.8308 43.4345 72.7555 43.1772 73.655 42.9444C74.4597 42.7248 75.2194 42.5193 75.9696 42.2838C81.3116 40.6072 83.0281 38.041 84.5452 35.7846C85.1277 34.9094 85.6943 34.0887 86.3989 33.3401C87.5439 32.1566 88.9323 31.2757 90.4178 30.8095L90.4675 30.8104Z" fill="#F5F5F5"/>
<path d="M97.7526 99.5022C97.7526 99.5022 97.1887 94.2396 92.6464 94.5773C88.104 94.9151 87.6209 97.2096 88.1682 99.7411" fill="#F5F5F5"/>
<path d="M97.7526 99.5022C97.7526 99.5022 97.1887 94.2396 92.6464 94.5773C88.104 94.9151 87.6209 97.2096 88.1682 99.7411" stroke="#FF69CC" stroke-width="0.93" stroke-linecap="round" stroke-linejoin="round"/>
<path d="M129.022 262.782C129.967 262.485 131.083 261.839 132.414 260.827C138.716 256.014 142.572 252.595 142.496 243.635C142.46 239.476 143.968 236.877 145.312 234.592C146.609 232.372 147.835 230.289 147.294 227.36C146.361 222.18 139.767 220.393 137.77 219.965C137.454 217.015 135.734 203.659 130.053 199.475C134.528 196.768 151.342 185.952 154.169 174.845C154.981 171.656 154.561 168.689 152.922 166.039C150.32 161.844 147.395 158.147 144.811 154.903C138.47 146.937 133.467 140.661 136.935 131.858C139.654 124.922 136.406 115.36 133.26 106.127C130.437 97.8151 127.76 89.9685 130.009 85.422C131.712 81.9701 130.36 77.3999 126.212 72.5368C120.749 66.1581 110.717 59.878 105.99 61.3616C105.435 61.5358 104.978 61.8113 104.598 62.1777C102.223 64.588 102.221 67.2094 102.21 69.5371C102.199 72.1284 102.196 74.0086 99.1221 75.1382C96.8489 75.9835 95.5144 77.1936 95.1589 78.7393C94.7437 80.5674 95.8829 82.2538 96.4523 82.9652C95.8034 84.7842 93.6449 91.8244 97.6533 94.407C100.649 96.335 103.395 97.4181 105.173 97.8821C100.744 97.6897 88.761 97.4287 80.0084 99.5824C73.7337 101.123 66.0362 98.4458 59.2285 96.0824C54.8827 94.5783 51.0908 93.2629 48.1034 93.1456C47.8046 92.0361 46.9807 89.6737 45.2502 88.5191C44.4389 87.9825 43.5474 87.7678 42.5802 87.8901C41.8072 87.1601 39.5628 85.5239 36.1716 86.5883C35.5264 86.7908 34.8597 87.0825 34.2062 87.4689C32.1156 88.6855 30.6309 91.3603 30.0593 95.0012C29.4534 98.9002 29.9962 103.098 31.3134 104.564C33.2647 106.737 38.3102 106.637 41.2063 105.728C41.7765 105.549 42.2725 105.344 42.6945 105.113C45.1124 106.777 57.599 115.154 66.1317 116.449C67.4267 116.636 69.9216 117.6 72.8173 118.686C78.6378 120.897 85.8964 123.647 89.4368 122.585C89.7903 123.974 90.5416 126.788 91.5737 129.183C91.8842 129.91 91.7267 131.509 91.5219 133.535C90.9595 139.2 90.0123 148.63 96.9308 159.381C95.5135 161.903 93.2459 164.972 90.6571 168.488C82.4222 179.644 71.1649 194.93 77.3048 207.245C81.9313 216.523 91.8617 220.643 100.637 224.284C106.967 226.913 112.937 229.391 115.538 233.371L116.337 234.604C122.149 243.511 125.08 247.964 124.868 253.75C124.721 257.901 124.743 261.175 126.387 262.422C127.084 262.962 127.987 263.057 129.068 262.718L129.022 262.782Z" fill="#F5F5F5"/>
<path d="M106.162 62.0659C105.742 62.1978 105.365 62.415 105.076 62.7034C100.361 67.48 105.887 73.427 99.3284 75.8482C92.7696 78.2694 97.2552 82.8451 97.2552 82.8451C97.2552 82.8451 93.9444 91.2029 98.0166 93.8314C102.089 96.4599 105.455 97.3648 106.553 97.4489L106.794 98.7414C106.794 98.7414 90.8404 97.6991 80.1294 100.336C69.4184 102.972 54.8967 93.7826 47.4729 93.9204C47.4729 93.9204 46.2964 87.861 42.2669 88.7301C42.2669 88.7301 40.1087 86.1602 36.3423 87.3424C35.7721 87.5213 35.1607 87.7792 34.5223 88.1609C29.6425 90.9947 29.823 101.916 31.8035 104.13C33.4232 105.929 37.9529 106.024 40.924 105.091C41.5993 104.879 42.2059 104.606 42.669 104.296C42.669 104.296 56.976 114.377 66.1834 115.773C70.2118 116.372 84.2327 123.493 89.2145 121.929C89.4696 121.849 89.6853 121.749 89.8962 121.633C89.8962 121.633 90.8189 125.728 92.1945 128.956C93.5702 132.183 87.9451 144.564 97.7311 159.41C91.9519 170.092 70.0128 191.154 77.8965 206.976C85.7951 222.794 109.731 223.325 116.076 233.037C122.421 242.749 125.759 247.553 125.543 253.852C125.36 258.887 125.414 263.156 128.775 262.101C129.615 261.838 130.65 261.249 131.941 260.267C138.425 255.298 141.806 252.044 141.729 243.662C141.653 235.279 147.547 233.05 146.536 227.516C145.524 221.982 137.052 220.619 137.052 220.619C137.052 220.619 135.486 202.813 128.59 199.489C128.59 199.489 161.166 180.858 152.243 166.45C143.339 152.052 131.096 144.554 136.184 131.616C141.271 118.679 124.357 95.0916 129.273 85.1255C133.89 75.7809 112.649 60.0464 106.122 62.0951M105.684 60.6996C110.681 59.1313 121.083 65.5422 126.683 72.0924C131.05 77.1833 132.427 82.0424 130.585 85.7853C128.48 90.0558 131.095 97.7571 133.871 105.919C137.058 115.287 140.364 124.98 137.542 132.162C134.23 140.57 138.882 146.412 145.306 154.484C147.899 157.758 150.854 161.446 153.47 165.685C155.216 168.516 155.678 171.668 154.812 175.055C152.096 185.781 136.757 196.151 131.245 199.595C136.285 204.31 137.956 215.621 138.387 219.409C140.942 220.041 147.015 222.058 147.958 227.267C148.533 230.466 147.194 232.765 145.886 235.005C144.537 237.324 143.142 239.707 143.167 243.672C143.249 252.811 139.31 256.487 132.81 261.461C131.414 262.526 130.228 263.211 129.193 263.536C127.557 264.05 126.476 263.598 125.852 263.134C123.928 261.678 123.894 258.21 124.041 253.845C124.243 248.293 121.361 243.89 115.626 235.124L114.827 233.891C112.353 230.102 106.476 227.66 100.259 225.079C91.371 221.39 81.3026 217.199 76.551 207.679C70.2042 194.968 81.6245 179.466 89.9765 168.157C92.4276 164.833 94.5781 161.916 95.9834 159.514C89.1755 148.694 90.1376 139.261 90.7104 133.575C90.8744 131.892 91.0495 130.139 90.8255 129.583C89.942 127.503 89.2382 125.103 88.8375 123.564C85.2506 124.162 79.5213 122.136 72.4899 119.481C69.7575 118.443 67.1734 117.457 65.9479 117.281C57.6235 116.02 45.694 108.21 42.568 106.075C42.192 106.243 41.7963 106.4 41.3461 106.541C38.3901 107.469 32.9497 107.676 30.6958 105.17C29.0226 103.305 28.6986 98.5437 29.2684 95.0022C29.8838 91.1332 31.4761 88.2763 33.7627 86.9487C34.4612 86.5482 35.1832 86.2227 35.8734 86.006C39.2947 84.9322 41.6767 86.3769 42.7455 87.2612C43.7662 87.2046 44.7216 87.4652 45.577 88.0374C47.2831 89.1667 48.1714 91.2616 48.5858 92.5821C51.5959 92.8241 55.2395 94.0871 59.4023 95.5334C66.1161 97.8602 73.7001 100.491 79.7599 99.001C86.4942 97.349 95.1038 97.1028 100.793 97.1633C99.6882 96.6364 98.4762 95.9784 97.1926 95.145C92.9382 92.4088 94.7331 85.6806 95.5575 83.2131C94.8677 82.2757 93.9424 80.5881 94.3688 78.6905C94.7738 76.8821 96.2657 75.4908 98.7939 74.5654C101.292 73.6494 101.394 72.3977 101.403 69.6422C101.409 67.2995 101.416 64.3798 104.009 61.7693C104.459 61.3147 105.027 60.9715 105.688 60.7643L105.684 60.6996Z" fill="#FF69CC"/>
<path d="M141.976 180.271C141.976 180.271 121.598 196.903 105.638 200.462C105.638 200.462 117.446 206.992 124.481 225.52C124.481 225.52 136.829 217.491 137.126 232.777C137.419 248.048 142.2 247.734 140.764 252.14" stroke="#FF69CC" stroke-width="0.93" stroke-linecap="round" stroke-linejoin="round"/>
<path d="M130.709 135.758C129.551 139.055 129.176 142.585 130.91 144.958" stroke="#FF69CC" stroke-width="0.93" stroke-linecap="round" stroke-linejoin="round"/>
<path d="M107.156 77.0506C107.156 77.0506 105.651 79.2375 102.94 78.374" stroke="#FF69CC" stroke-width="0.93" stroke-linecap="round" stroke-linejoin="round"/>
<path d="M105.77 98.6835C109 98.5763 112.285 100.43 113.48 103.5C113.898 104.358 115.217 103.73 114.799 102.872C113.651 100.265 111.239 98.3024 108.468 97.7214C107.547 97.5161 106.658 97.4159 105.687 97.4734C105.349 97.4972 105.09 97.7762 105.114 98.1149C105.127 98.4732 105.436 98.7224 105.79 98.6938L105.77 98.6835Z" fill="#FF69CC"/>
<path d="M70.6872 110.849C70.6872 110.849 68.459 113.097 65.1927 110.463" stroke="#FF69CC" stroke-width="0.93" stroke-linecap="round" stroke-linejoin="round"/>
<path d="M142.224 91.1487C143.035 90.8944 143.541 90.4059 143.606 89.825C143.641 89.5173 143.581 88.9591 142.783 88.5173C141.596 87.8348 141.965 86.6972 142.171 86.2532C143.113 85.5784 143.655 84.7821 143.79 83.8494C143.87 83.2639 143.761 82.7048 143.6 82.2444C144.336 82.2275 145.025 82.1103 145.67 81.9078C149.076 80.8387 150.906 77.4786 150.461 73.1184C150.04 69.0471 146.421 66.9688 144.328 66.0763C144.888 65.6037 145.382 64.9708 145.695 64.1307C146.213 62.6824 145.995 60.9376 145.04 58.9461C143.087 54.8776 138.446 54.6366 136.828 54.6827C134.854 50.1762 130.477 48.7311 124.43 50.6291C123.289 50.9871 122.312 51.3926 121.665 51.6946C121.211 50.4033 119.709 48.4021 114.777 47.9719C113.709 47.8785 112.658 47.9942 111.667 48.3051C107.616 49.5767 105.417 53.8107 104.697 55.4544C104.28 55.3873 103.822 55.4489 103.341 55.5996C101.991 56.0235 100.731 57.21 100.2 58.5635C99.7364 59.7641 99.8289 61.0043 100.495 62.1302C101.78 64.3315 102.931 64.7945 103.758 64.6997C104.572 67.032 105.866 68.6863 107.611 69.6223C109.749 70.7643 112.051 70.5363 113.425 70.2371C113.465 71.6256 114.413 73.1246 115.158 74.0779C113.926 74.5138 113.052 75.2992 112.751 76.2838C112.545 76.9417 112.503 77.9606 113.437 79.151C114.701 80.765 116.157 80.8852 117.029 80.7762C117.441 81.9822 118.38 82.8742 121.043 82.4834C121.262 82.4475 121.492 82.3919 121.717 82.3212C122.753 81.9963 123.715 81.3318 124.505 80.8035C124.736 80.6484 124.953 80.498 125.159 80.3674C125.12 80.6104 125.049 80.9623 124.926 81.4625C124.557 82.9135 123.735 83.8142 122.445 84.2193C120.749 84.7514 118.869 84.2209 118.849 84.2106L118.285 84.0415L118.002 84.5588C116.589 87.1453 117.331 92.1375 119.527 94.8274C120.808 96.387 122.419 96.9526 124.07 96.4345C124.205 96.3921 124.34 96.3497 124.47 96.2924C125.959 95.6769 126.924 94.8135 127.35 93.7566C127.418 93.6036 127.461 93.4252 127.514 93.2272C128.789 94.2445 129.937 94.593 130.958 94.2728C132.308 93.8489 132.93 92.4174 133.21 91.4723C133.8 91.617 134.352 91.5919 134.878 91.4271C135.868 91.1162 136.509 90.3217 136.89 89.5922C138.534 91.4169 140.904 91.5631 142.224 91.1487Z" fill="#FF69CC"/>
<path d="M111.899 48.9906C107.232 50.4553 105.139 56.3376 105.139 56.3376C104.7 56.0961 104.154 56.0865 103.568 56.2701C101.723 56.8494 99.7198 59.2912 101.129 61.7335C102.423 63.9648 103.421 64.0471 103.901 63.8964C104.112 63.8304 104.223 63.713 104.223 63.713C106.361 71.1025 112.303 69.8145 113.983 69.287C114.269 69.1975 114.429 69.1307 114.429 69.1307C113.182 70.9889 116.469 74.474 116.469 74.474C116.135 74.5129 115.81 74.5818 115.525 74.6713C113.634 75.2647 112.606 76.8731 114.003 78.6437C115.37 80.3739 116.947 80.0436 117.413 79.8976C117.503 79.8693 117.548 79.8552 117.548 79.8552C117.758 80.8935 118.02 82.1466 120.937 81.7255C121.126 81.699 121.311 81.6575 121.506 81.5963C123.082 81.1017 124.62 79.6466 125.4 79.4017C125.97 79.2227 126.131 79.6832 125.639 81.6343C125.132 83.5901 123.937 84.5092 122.662 84.9095C120.726 85.517 118.638 84.9032 118.638 84.9032C116.736 88.3516 119.317 97.1516 123.864 95.7245C123.969 95.6916 124.089 95.6539 124.204 95.6012C128.138 93.9545 126.529 91.2451 126.559 91.2357C126.559 91.2357 126.642 91.3416 126.836 91.5937C128.604 93.4454 129.846 93.8304 130.731 93.5525C132.292 93.0627 132.671 90.4878 132.671 90.4878C133.475 90.8452 134.126 90.8716 134.651 90.7068C136.227 90.2123 136.689 88.0069 136.689 88.0069C138.021 90.5722 140.633 90.857 141.983 90.4331C142.853 90.16 143.217 89.5844 142.399 89.1323C140.316 87.9565 141.579 85.7304 141.579 85.7304C144.407 83.8702 142.306 81.4307 142.306 81.4307C143.453 81.5653 144.514 81.4795 145.429 81.1922C148.46 80.2409 150.116 77.1662 149.724 73.185C149.194 67.9777 142.673 66.266 142.673 66.266C144.167 65.5662 146.503 63.7122 144.378 59.2527C142.253 54.7933 136.353 55.4254 136.353 55.4254C134.099 49.5063 128.408 50.1222 124.657 51.2996C122.601 51.9449 121.124 52.7545 121.124 52.7545C121.124 52.7545 121.365 49.2669 114.715 48.6672C113.682 48.5793 112.745 48.6921 111.89 48.9606M111.452 47.5651C112.547 47.2213 113.678 47.097 114.85 47.2072C119.345 47.6097 121.235 49.2746 122.031 50.7062C122.642 50.4484 123.378 50.1679 124.219 49.9041C130.386 47.9685 135.085 49.4441 137.299 53.925C139.368 53.9515 143.75 54.5212 145.708 58.6047C146.754 60.7819 146.978 62.7058 146.392 64.3569C146.199 64.8956 145.922 65.3782 145.585 65.8299C147.819 66.9586 150.804 69.17 151.204 73.0171C151.689 77.6615 149.603 81.415 145.897 82.5783C145.447 82.7196 144.998 82.8112 144.524 82.8774C144.563 83.2114 144.572 83.5548 144.52 83.917C144.413 84.6761 144.021 85.7386 142.77 86.6915C142.582 87.1956 142.705 87.5857 143.148 87.8422C144.335 88.5247 144.373 89.4854 144.331 89.8776C144.231 90.7662 143.547 91.4754 142.436 91.8239C140.816 92.3326 138.677 92.0312 137.039 90.6991C136.581 91.288 135.96 91.8291 135.104 92.0976C134.654 92.2389 134.191 92.2854 133.704 92.2569C133.303 93.2895 132.55 94.5147 131.184 94.9433C130.164 95.2636 129.063 95.0651 127.882 94.3479C127.331 95.4275 126.286 96.2995 124.753 96.929C124.588 96.9808 124.442 97.0429 124.292 97.09C122.357 97.6976 120.414 97.0217 118.953 95.255C116.581 92.3729 115.796 86.9821 117.337 84.174L117.903 83.1394L119.031 83.4776C119.031 83.4776 120.729 83.9502 122.199 83.4887C122.994 83.2391 123.555 82.7665 123.916 82.0267C123.308 82.399 122.634 82.7751 121.929 82.9965C121.659 83.0812 121.399 83.1463 121.13 83.1813C118.233 83.6128 117.043 82.5522 116.514 81.4983C115.306 81.482 113.942 80.9705 112.827 79.573C111.947 78.4482 111.655 77.2046 112.014 76.037C112.309 75.0872 113.015 74.2888 113.999 73.7491C113.491 72.9691 112.985 72.04 112.768 71.0861C111.272 71.3084 109.197 71.3166 107.236 70.2673C105.452 69.3107 104.103 67.6902 103.228 65.4265C102.25 65.3048 101.069 64.5876 99.8523 62.4969C99.0945 61.1853 98.9716 59.6909 99.5084 58.3026C100.118 56.7266 101.529 55.3936 103.105 54.8991C103.48 54.7813 103.854 54.7133 104.232 54.71C105.163 52.7368 107.459 48.8676 111.436 47.6195L111.452 47.5651Z" fill="#F5F5F5"/>
<path d="M125.938 80.1722C125.938 80.1722 125.685 86.3506 118.638 84.9032C118.638 84.9032 118.583 88.8268 114.903 90.2293" stroke="#FF69CC" stroke-width="0.93" stroke-linecap="round" stroke-linejoin="round"/>
<path d="M118.003 111.608C117.874 103.687 121.408 100.451 135.45 96.456C149.478 92.4653 157.943 85.7701 168.652 90.8485C179.361 95.9268 195.358 101.307 206.722 99.702C218.082 98.0817 229.449 110.454 213.894 112.731C213.894 112.731 214.739 123.197 204.792 119.495C204.792 119.495 203.862 124.831 197.578 122.402C197.578 122.402 196.396 128.459 188.672 126.17C188.672 126.17 186.155 132.646 178.904 129.235C178.904 129.235 176.425 133.261 171.412 131.257C171.412 131.257 167.574 135.626 161.404 131.514C161.404 131.514 157.337 135.675 152.021 131.657C152.021 131.657 146.498 136.538 141.824 130.785C141.824 130.785 136.136 135.983 131.667 131.039C127.198 126.096 125.68 126.457 122.138 124.783" fill="#F5F5F5"/>
<path d="M118.003 111.608C117.874 103.687 121.408 100.451 135.45 96.456C149.478 92.4653 157.943 85.7701 168.652 90.8485C179.361 95.9268 195.358 101.307 206.722 99.702C218.082 98.0817 229.449 110.454 213.894 112.731C213.894 112.731 214.739 123.197 204.792 119.495C204.792 119.495 203.862 124.831 197.578 122.402C197.578 122.402 196.396 128.459 188.672 126.17C188.672 126.17 186.155 132.646 178.904 129.235C178.904 129.235 176.425 133.261 171.412 131.257C171.412 131.257 167.574 135.626 161.404 131.514C161.404 131.514 157.337 135.675 152.021 131.657C152.021 131.657 146.498 136.538 141.824 130.785C141.824 130.785 136.136 135.983 131.667 131.039C127.198 126.096 125.68 126.457 122.138 124.783" stroke="#FF69CC" stroke-width="0.93" stroke-linecap="round" stroke-linejoin="round"/>
<path d="M141.829 130.8C141.829 130.8 139.438 124.232 130.727 122.895" stroke="#FF69CC" stroke-width="0.93" stroke-linecap="round" stroke-linejoin="round"/>
<path d="M152.021 131.657C152.021 131.657 147.384 124.656 140.538 123.063" stroke="#FF69CC" stroke-width="0.93" stroke-linecap="round" stroke-linejoin="round"/>
<path d="M161.409 131.529C161.409 131.529 155.286 124.467 150.858 122.28" stroke="#FF69CC" stroke-width="0.93" stroke-linecap="round" stroke-linejoin="round"/>
<path d="M171.416 131.272C171.416 131.272 166.874 124.572 158.866 123.426" stroke="#FF69CC" stroke-width="0.93" stroke-linecap="round" stroke-linejoin="round"/>
<path d="M178.904 129.235C178.904 129.235 176.788 121.443 166.114 117.475C155.439 113.506 153.96 111.366 153.96 111.366" stroke="#FF69CC" stroke-width="0.93" stroke-linecap="round" stroke-linejoin="round"/>
<path d="M188.672 126.17C188.672 126.17 186.431 119.554 177.963 117.415C169.495 115.276 164.942 114.266 163.544 111.128" stroke="#FF69CC" stroke-width="0.93" stroke-linecap="round" stroke-linejoin="round"/>
<path d="M197.578 122.402C197.578 122.402 193.241 115.307 184.726 113.595C176.225 111.878 171.568 109.433 169.09 104.689" stroke="#FF69CC" stroke-width="0.93" stroke-linecap="round" stroke-linejoin="round"/>
<path d="M204.792 119.495C204.792 119.495 199.624 111.853 192.587 110.65C185.55 109.446 181.391 108.642 179.32 106.193" stroke="#FF69CC" stroke-width="0.93" stroke-linecap="round" stroke-linejoin="round"/>
<path d="M213.879 112.736C213.879 112.736 208.801 108.478 200.966 107.36" stroke="#FF69CC" stroke-width="0.93" stroke-linecap="round" stroke-linejoin="round"/>
<path d="M159.447 201.639C162.118 200.801 164.607 198.174 163.703 194.402C163.036 191.595 161.456 190.393 160.396 189.589C159.811 189.146 159.458 188.861 159.438 188.587C159.393 188.024 160.295 186.801 162.124 184.958C164.899 182.142 163.311 179.97 161.902 178.055C160.552 176.221 159.279 174.477 160.75 171.758C162.287 168.935 162.62 165.847 161.708 162.836C160.561 159.026 157.561 155.665 153.245 153.36C149.795 151.509 148.521 149.601 147.493 148.061C146.365 146.355 145.376 144.885 142.177 144.933C141.321 144.938 140.478 145.087 139.667 145.341C136.516 146.331 134.262 148.917 132.084 151.43C130.17 153.63 128.363 155.697 126.187 156.38C125.917 156.465 125.657 156.53 125.373 156.57C124.395 156.184 120.002 154.794 113.31 156.894C110.489 157.78 108.947 157.225 107.311 156.634C105.823 156.096 104.281 155.541 101.97 156.267C100.619 156.691 99.1024 157.529 97.3336 158.826C95.3277 160.313 93.2847 161.366 91.0789 162.059C89.9084 162.426 88.8851 162.632 88.0016 162.81C87.3375 162.953 86.7634 163.067 86.2983 163.213C84.4526 163.792 83.999 164.973 84.714 167.304C85.3169 169.224 85.9629 170.39 86.5126 171.091C84.4204 171.83 80.5617 173.453 79.4527 175.697C79.0662 176.461 79.0277 177.231 79.2979 177.987C80.0991 180.225 82.8751 179.353 84.0455 178.986C84.5857 178.816 85.1512 178.622 85.742 178.404C86.3375 178.201 86.9433 177.978 87.5585 177.784C90.4096 176.89 91.8996 177.015 92.7295 178.189C96.0332 182.938 100.871 184.172 119.418 178.351C120.618 177.974 121.894 177.574 123.22 177.125L123.64 176.993C133.619 173.861 135.805 179.62 137.9 185.193C139.246 188.743 140.51 192.088 143.91 191.895C150.069 191.56 150.662 193.237 152.093 197.272C152.268 197.777 152.463 198.293 152.672 198.854C153.822 201.888 156.991 202.427 159.452 201.654L159.447 201.639Z" fill="#FF69CC"/>
<path d="M102.177 156.927C100.992 157.299 99.5608 158.045 97.7564 159.386C95.3222 161.188 93.1317 162.14 91.286 162.719C89.2153 163.369 87.5708 163.539 86.5054 163.873C85.2 164.283 84.7608 164.932 85.4051 167.037C86.5534 170.748 87.8957 171.349 87.8957 171.349C87.8957 171.349 87.8207 171.372 87.6707 171.42C86.2452 171.867 78.7943 174.387 79.9796 177.691C80.4634 179.022 81.9643 178.815 83.825 178.231C84.9204 177.887 86.1376 177.406 87.338 177.029C89.7239 176.281 92.0633 175.909 93.3246 177.722C96.1189 181.741 99.845 183.686 119.202 177.611C120.402 177.234 121.663 176.839 122.989 176.389C123.139 176.342 123.274 176.3 123.424 176.253C140.74 170.818 136.431 191.539 143.874 191.148C151.392 190.733 151.433 193.49 153.358 198.572C154.294 201.031 156.934 201.669 159.23 200.949C161.691 200.177 163.766 197.86 162.999 194.574C161.499 188.22 155.047 191.086 161.615 184.442C166.27 179.734 156.726 177.686 160.129 171.408C163.533 165.131 160.385 157.993 152.915 153.991C145.445 149.99 147.632 145.561 142.204 145.65C141.383 145.66 140.615 145.786 139.894 146.012C134.207 147.797 131.321 155.511 126.414 157.051C126.054 157.164 125.684 157.247 125.285 157.29C125.285 157.29 120.829 155.276 113.537 157.565C107.79 159.369 106.619 155.533 102.192 156.922M101.754 155.527C104.305 154.726 106.035 155.353 107.577 155.908C109.159 156.483 110.518 156.979 113.114 156.165C119.626 154.121 124.102 155.304 125.471 155.781C125.641 155.744 125.811 155.707 125.991 155.651C127.956 155.034 129.703 153.035 131.541 150.909C133.795 148.322 136.12 145.647 139.467 144.597C140.352 144.319 141.265 144.181 142.195 144.152C145.788 144.096 146.975 145.883 148.128 147.615C149.16 149.17 150.333 150.911 153.625 152.681C158.119 155.078 161.255 158.61 162.458 162.601C163.416 165.811 163.075 169.083 161.445 172.083C160.257 174.286 161.085 175.609 162.532 177.594C163.863 179.418 165.888 182.194 162.687 185.441C160.762 187.397 160.331 188.175 160.236 188.452C160.378 188.589 160.663 188.812 160.884 188.99C162.012 189.856 163.725 191.164 164.452 194.216C165.452 198.452 162.695 201.378 159.694 202.32C156.347 203.37 153.118 202.01 152.016 199.076C151.807 198.515 151.607 197.984 151.432 197.479C150.015 193.489 149.589 192.288 143.978 192.582C140.04 192.796 138.614 189.041 137.24 185.4C135.168 179.902 133.206 174.699 123.872 177.629L123.467 177.756C122.141 178.205 120.866 178.605 119.665 178.982C100.668 184.944 95.6586 183.583 92.1463 178.537C91.7243 177.928 90.8821 177.45 87.806 178.416C87.2058 178.604 86.5953 178.812 86.0195 179.026C85.424 179.229 84.8482 179.443 84.293 179.617C83.1526 179.975 79.6713 181.068 78.6282 178.164C78.2818 177.218 78.349 176.224 78.8179 175.302C79.8857 173.138 83.0521 171.567 85.4058 170.663C84.9517 169.899 84.4776 168.861 84.0396 167.466C83.5074 165.77 83.1564 163.391 86.0975 162.468C86.6226 162.303 87.1967 162.189 87.8608 162.047C88.7443 161.868 89.7376 161.672 90.8781 161.314C92.9938 160.65 94.9815 159.63 96.9218 158.197C98.7562 156.847 100.329 155.974 101.769 155.522L101.754 155.527Z" fill="#F5F5F5"/>
<path d="M86.9306 170.795C89.4293 170.983 96.8411 161.931 106.327 163.586C116.27 165.328 122.832 169.746 126.407 169.844" stroke="#F5F5F5" stroke-width="0.93" stroke-linecap="round" stroke-linejoin="round"/>
<path d="M125.727 156.805C125.727 156.805 134.878 163.641 144.981 164.74" stroke="#F5F5F5" stroke-width="0.93" stroke-linecap="round" stroke-linejoin="round"/>
<path d="M21.5932 101.219C24.0241 100.456 26.7144 98.5236 26.2585 95.6007C25.9408 93.5905 25.552 92.5093 24.8342 91.7455C24.4829 91.3613 24.2948 91.0247 24.3386 90.7967C24.4168 90.3106 25.4266 89.7464 26.2404 89.2932C27.702 88.4883 28.2926 86.5886 27.7216 84.5591C27.1458 82.5145 25.356 80.4883 22.6484 80.5799C21.7375 80.6185 20.8145 80.7764 19.9292 81.0542C14.5272 82.7497 10.4443 88.9103 10.885 90.9973C12.4489 98.501 15.8997 100.83 18.5294 101.488C19.2971 101.676 20.4031 101.576 21.5885 101.204L21.5932 101.219Z" fill="#F5F5F5"/>
<path d="M20.1506 81.7595C14.7936 83.4408 11.2968 89.368 11.6139 90.851C11.8988 92.1791 13.2438 99.4053 18.7162 100.77C19.3403 100.92 20.3318 100.824 21.3672 100.499C23.543 99.8157 25.9155 98.1315 25.5306 95.6973C25.2308 93.7969 24.8694 92.8554 24.2935 92.2285C22.6241 90.4282 24.2564 89.5368 25.899 88.6256C28.5814 87.1409 26.9461 81.1431 22.6803 81.3116C21.7994 81.3409 20.9608 81.5052 20.1506 81.7595ZM19.7126 80.364C20.6729 80.0626 21.6559 79.8859 22.6363 79.8584C25.7472 79.7392 27.786 82.0334 28.4362 84.3677C29.0912 86.7171 28.3603 88.9575 26.6221 89.9317C26.1299 90.2015 25.3564 90.6256 25.1128 90.8999C25.1513 90.9702 25.2387 91.0911 25.39 91.2579C26.2101 92.1379 26.6667 93.3298 27.0015 95.4994C27.5339 98.8763 24.5456 101.067 21.8296 101.919C21.0643 102.16 19.5956 102.522 18.3774 102.212C15.5497 101.5 11.8426 99.0374 10.2231 91.304L10.1807 91.1689C9.68606 88.7527 13.7751 82.244 19.7323 80.3743L19.7126 80.364Z" fill="#FF69CC"/>
</g>
<defs>
<clipPath id="clip0_139_786">
<rect width="197.706" height="233.595" fill="white" transform="matrix(-0.954109 0.299459 0.299459 0.954109 188.633 0)"/>
</clipPath>
</defs>
</svg>
