<svg width="171" height="29" viewBox="0 0 171 29" fill="none" xmlns="http://www.w3.org/2000/svg">
<path d="M13.344 14.336H16.896V21.152C15.984 21.84 14.928 22.368 13.728 22.736C12.528 23.104 11.32 23.288 10.104 23.288C8.36 23.288 6.792 22.92 5.4 22.184C4.008 21.432 2.912 20.4 2.112 19.088C1.328 17.76 0.936 16.264 0.936 14.6C0.936 12.936 1.328 11.448 2.112 10.136C2.912 8.808 4.016 7.776 5.424 7.04C6.832 6.288 8.416 5.912 10.176 5.912C11.648 5.912 12.984 6.16 14.184 6.656C15.384 7.152 16.392 7.872 17.208 8.816L14.712 11.12C13.512 9.856 12.064 9.224 10.368 9.224C9.296 9.224 8.344 9.448 7.512 9.896C6.68 10.344 6.032 10.976 5.568 11.792C5.104 12.608 4.872 13.544 4.872 14.6C4.872 15.64 5.104 16.568 5.568 17.384C6.032 18.2 6.672 18.84 7.488 19.304C8.32 19.752 9.264 19.976 10.32 19.976C11.44 19.976 12.448 19.736 13.344 19.256V14.336ZM32.8916 16.592C32.8916 16.64 32.8676 16.976 32.8196 17.6H23.0516C23.2276 18.4 23.6436 19.032 24.2996 19.496C24.9556 19.96 25.7716 20.192 26.7476 20.192C27.4196 20.192 28.0116 20.096 28.5236 19.904C29.0516 19.696 29.5396 19.376 29.9876 18.944L31.9796 21.104C30.7636 22.496 28.9876 23.192 26.6516 23.192C25.1956 23.192 23.9076 22.912 22.7876 22.352C21.6676 21.776 20.8036 20.984 20.1956 19.976C19.5876 18.968 19.2836 17.824 19.2836 16.544C19.2836 15.28 19.5796 14.144 20.1716 13.136C20.7796 12.112 21.6036 11.32 22.6436 10.76C23.6996 10.184 24.8756 9.896 26.1716 9.896C27.4356 9.896 28.5796 10.168 29.6036 10.712C30.6276 11.256 31.4276 12.04 32.0036 13.064C32.5956 14.072 32.8916 15.248 32.8916 16.592ZM26.1956 12.728C25.3476 12.728 24.6356 12.968 24.0596 13.448C23.4836 13.928 23.1316 14.584 23.0036 15.416H29.3636C29.2356 14.6 28.8836 13.952 28.3076 13.472C27.7316 12.976 27.0276 12.728 26.1956 12.728ZM43.7123 22.376C43.3443 22.648 42.8883 22.856 42.3443 23C41.8163 23.128 41.2563 23.192 40.6643 23.192C39.1283 23.192 37.9363 22.8 37.0883 22.016C36.2563 21.232 35.8403 20.08 35.8403 18.56V13.256H33.8483V10.376H35.8403V7.232H39.5843V10.376H42.8003V13.256H39.5843V18.512C39.5843 19.056 39.7203 19.48 39.9922 19.784C40.2803 20.072 40.6803 20.216 41.1923 20.216C41.7843 20.216 42.2883 20.056 42.7043 19.736L43.7123 22.376ZM69.0268 6.2L61.7548 23H57.9148L50.6668 6.2H54.8668L59.9788 18.2L65.1628 6.2H69.0268ZM74.4126 9.896C76.4126 9.896 77.9486 10.376 79.0206 11.336C80.0926 12.28 80.6286 13.712 80.6286 15.632V23H77.1246V21.392C76.4206 22.592 75.1086 23.192 73.1886 23.192C72.1966 23.192 71.3326 23.024 70.5966 22.688C69.8766 22.352 69.3246 21.888 68.9406 21.296C68.5566 20.704 68.3646 20.032 68.3646 19.28C68.3646 18.08 68.8126 17.136 69.7086 16.448C70.6206 15.76 72.0206 15.416 73.9086 15.416H76.8846C76.8846 14.6 76.6366 13.976 76.1406 13.544C75.6446 13.096 74.9006 12.872 73.9086 12.872C73.2206 12.872 72.5406 12.984 71.8686 13.208C71.2126 13.416 70.6526 13.704 70.1886 14.072L68.8446 11.456C69.5486 10.96 70.3886 10.576 71.3646 10.304C72.3566 10.032 73.3726 9.896 74.4126 9.896ZM74.1246 20.672C74.7646 20.672 75.3326 20.528 75.8286 20.24C76.3246 19.936 76.6766 19.496 76.8846 18.92V17.6H74.3166C72.7806 17.6 72.0126 18.104 72.0126 19.112C72.0126 19.592 72.1966 19.976 72.5646 20.264C72.9486 20.536 73.4686 20.672 74.1246 20.672ZM84.0171 5.192H87.7611V23H84.0171V5.192ZM103.884 16.592C103.884 16.64 103.86 16.976 103.812 17.6H94.0438C94.2198 18.4 94.6358 19.032 95.2918 19.496C95.9478 19.96 96.7638 20.192 97.7398 20.192C98.4118 20.192 99.0038 20.096 99.5158 19.904C100.044 19.696 100.532 19.376 100.98 18.944L102.972 21.104C101.756 22.496 99.9798 23.192 97.6438 23.192C96.1878 23.192 94.8998 22.912 93.7798 22.352C92.6598 21.776 91.7958 20.984 91.1878 19.976C90.5798 18.968 90.2758 17.824 90.2758 16.544C90.2758 15.28 90.5718 14.144 91.1638 13.136C91.7718 12.112 92.5958 11.32 93.6358 10.76C94.6918 10.184 95.8678 9.896 97.1638 9.896C98.4278 9.896 99.5718 10.168 100.596 10.712C101.62 11.256 102.42 12.04 102.996 13.064C103.588 14.072 103.884 15.248 103.884 16.592ZM97.1878 12.728C96.3398 12.728 95.6278 12.968 95.0518 13.448C94.4758 13.928 94.1238 14.584 93.9958 15.416H100.356C100.228 14.6 99.8758 13.952 99.2998 13.472C98.7238 12.976 98.0198 12.728 97.1878 12.728ZM114.224 9.896C115.824 9.896 117.112 10.376 118.088 11.336C119.08 12.296 119.576 13.72 119.576 15.608V23H115.832V16.184C115.832 15.16 115.608 14.4 115.16 13.904C114.712 13.392 114.064 13.136 113.216 13.136C112.272 13.136 111.52 13.432 110.96 14.024C110.4 14.6 110.12 15.464 110.12 16.616V23H106.376V10.088H109.952V11.6C110.448 11.056 111.064 10.64 111.8 10.352C112.536 10.048 113.344 9.896 114.224 9.896ZM131.298 22.376C130.93 22.648 130.474 22.856 129.93 23C129.402 23.128 128.842 23.192 128.25 23.192C126.714 23.192 125.522 22.8 124.674 22.016C123.842 21.232 123.426 20.08 123.426 18.56V13.256H121.434V10.376H123.426V7.232H127.17V10.376H130.386V13.256H127.17V18.512C127.17 19.056 127.306 19.48 127.578 19.784C127.866 20.072 128.266 20.216 128.778 20.216C129.37 20.216 129.874 20.056 130.29 19.736L131.298 22.376ZM133.4 10.088H137.144V23H133.4V10.088ZM135.272 8.288C134.584 8.288 134.024 8.088 133.592 7.688C133.16 7.288 132.944 6.792 132.944 6.2C132.944 5.608 133.16 5.112 133.592 4.712C134.024 4.312 134.584 4.112 135.272 4.112C135.96 4.112 136.52 4.304 136.952 4.688C137.384 5.072 137.6 5.552 137.6 6.128C137.6 6.752 137.384 7.272 136.952 7.688C136.52 8.088 135.96 8.288 135.272 8.288ZM148.467 9.896C150.067 9.896 151.355 10.376 152.331 11.336C153.323 12.296 153.819 13.72 153.819 15.608V23H150.075V16.184C150.075 15.16 149.851 14.4 149.403 13.904C148.955 13.392 148.307 13.136 147.459 13.136C146.515 13.136 145.763 13.432 145.203 14.024C144.643 14.6 144.363 15.464 144.363 16.616V23H140.619V10.088H144.195V11.6C144.691 11.056 145.307 10.64 146.043 10.352C146.779 10.048 147.587 9.896 148.467 9.896ZM170.001 16.592C170.001 16.64 169.977 16.976 169.929 17.6H160.161C160.337 18.4 160.753 19.032 161.409 19.496C162.065 19.96 162.881 20.192 163.857 20.192C164.529 20.192 165.121 20.096 165.633 19.904C166.161 19.696 166.649 19.376 167.097 18.944L169.089 21.104C167.873 22.496 166.097 23.192 163.761 23.192C162.305 23.192 161.017 22.912 159.897 22.352C158.777 21.776 157.913 20.984 157.305 19.976C156.697 18.968 156.393 17.824 156.393 16.544C156.393 15.28 156.689 14.144 157.281 13.136C157.889 12.112 158.713 11.32 159.753 10.76C160.809 10.184 161.985 9.896 163.281 9.896C164.545 9.896 165.689 10.168 166.713 10.712C167.737 11.256 168.537 12.04 169.113 13.064C169.705 14.072 170.001 15.248 170.001 16.592ZM163.305 12.728C162.457 12.728 161.745 12.968 161.169 13.448C160.593 13.928 160.241 14.584 160.113 15.416H166.473C166.345 14.6 165.993 13.952 165.417 13.472C164.841 12.976 164.137 12.728 163.305 12.728Z" fill="#FF69CC"/>
<path d="M135.349 8.69941C135.05 8.57768 134.775 8.38431 134.566 8.13135C134.145 7.78976 133.671 7.29635 133.481 6.96496C133.213 6.49568 132.592 6.15244 132.276 5.67758C132.071 5.37106 132.007 5.03283 132.007 4.66769C132.007 4.07739 131.878 3.24972 132.703 3.06643C133.485 2.89264 134.044 3.06258 134.646 3.54408C134.96 3.79558 135.059 4.10355 135.219 4.46298C135.232 4.49224 135.246 4.52632 135.262 4.56364C135.36 4.66797 135.441 4.76781 135.517 4.86037C135.523 4.77174 135.525 4.68986 135.528 4.62675C135.571 3.85762 136.862 3.41552 137.412 3.17105C137.631 3.07347 137.816 3.02997 137.971 3.03112C138.378 2.98621 138.795 3.05973 138.967 3.27568C139.455 3.88541 139.049 4.66948 139.049 5.32275C139.049 5.76544 138.538 6.77988 138.249 7.10143C138.236 7.11579 138.223 7.1305 138.21 7.14554C138.108 7.35685 137.945 7.59252 137.754 7.81877C137.545 8.14573 137.318 8.46282 137.002 8.62081C136.685 8.77958 136.25 8.96654 135.897 8.96654C135.695 8.96654 135.519 8.83799 135.349 8.69941Z" fill="#FF69CC"/>
<path d="M135.528 5.93687C135.528 5.03722 134.787 4.45743 134.4 3.72604C134.005 2.97934 133.166 3.23776 132.644 3.70784C131.462 4.77151 133.852 7.23958 134.546 8.10677C135.004 8.67999 135.791 8.95814 136.47 8.80732C137.065 8.67513 138.164 7.52737 138.308 6.87853C138.5 6.01549 139.449 2.26574 137.412 3.17105C136.862 3.41552 135.571 3.85762 135.528 4.62675C135.513 4.90056 135.528 5.52746 135.119 5.52746C134.936 5.52746 134.786 4.68204 134.646 4.52667C134.528 4.39583 133.891 3.76243 133.727 3.76243C133.401 3.76243 133.56 4.72203 133.627 4.8724C133.785 5.22949 133.866 5.62987 134.154 5.91868C134.321 6.08513 134.015 5.46362 133.891 5.26362C133.836 5.17547 133.617 4.65981 133.518 4.6313C133.191 4.53795 132.967 4.09349 133.076 4.58581C133.18 5.05437 133.651 5.77013 133.977 6.09609C134.368 6.48714 134.546 6.58289 135.078 6.34629C135.388 6.20848 135.795 6.09147 136.038 5.87319C136.516 5.44297 137.017 5.06658 137.475 4.60855C137.577 4.50669 137.621 4.39167 137.721 4.28102C137.794 4.20004 137.858 3.69862 137.675 3.82612C137.371 4.03941 137.088 4.46656 136.716 4.54942C136.568 4.58219 135.619 4.78263 135.619 4.99067C135.619 4.99216 136.232 4.68515 136.265 4.67224C136.552 4.56057 136.821 4.54487 137.125 4.54487C137.309 4.54487 137.33 5.30254 137.33 5.48652C137.33 5.81846 136.867 6.39974 137.371 5.89593C137.503 5.7631 138.099 5.14681 137.903 4.99977C137.646 4.80735 136.655 6.71899 136.311 6.42362C136.034 6.18646 135.98 5.55241 135.738 5.24087C135.545 4.99333 134.961 4.25943 135.183 4.48118C135.711 5.00941 135.779 5.44558 136.656 5.44558C137.133 5.44558 137.109 5.66196 137.43 5.91868C137.591 6.04768 137.785 5.8146 137.785 5.67303C137.785 5.50772 137.519 5.47534 137.412 5.42738C136.909 5.20423 136.4 5.31381 135.856 5.28181C135.524 5.2623 135.325 4.7019 135.219 4.46298C135.059 4.10355 134.96 3.79558 134.646 3.54408C134.044 3.06258 133.485 2.89264 132.703 3.06643C131.878 3.24972 132.007 4.07739 132.007 4.66769C132.007 5.03283 132.071 5.37106 132.276 5.67758C132.592 6.15244 133.213 6.49568 133.481 6.96496C133.741 7.42019 134.54 8.18115 134.996 8.4343C135.285 8.59507 135.553 8.96654 135.897 8.96654C136.25 8.96654 136.685 8.77958 137.002 8.62081C137.567 8.33852 137.846 7.54834 138.249 7.10143C138.538 6.77988 139.049 5.76544 139.049 5.32275C139.049 4.66948 139.455 3.88541 138.967 3.27568C138.608 2.82609 137.192 2.99385 137.002 3.56227" stroke="#FF69CC" stroke-linecap="round"/>
</svg>
