<svg width="157" height="182" viewBox="0 0 157 182" fill="none" xmlns="http://www.w3.org/2000/svg">
<g clip-path="url(#clip0_101_416)">
<path d="M81.8511 35.8821C80.0803 27.2019 76.187 18.7284 69.5855 12.822C62.9824 6.92387 53.423 3.97274 44.958 6.56576C38.2589 8.62291 32.8657 13.8634 29.3854 19.9479C25.9052 26.0324 24.1375 32.9411 22.8174 39.8213C15.1118 80.0695 21.9593 122.95 41.8031 158.8C43.4468 161.765 45.4331 164.903 48.6371 165.992C52.386 167.266 56.3974 165.295 59.8376 163.33C77.7543 153.083 94.8385 141.203 109.6 126.77C124.359 112.346 136.758 95.2935 144.492 76.1613C146.59 70.9808 148.355 65.5265 148.237 59.9485C148.118 54.3705 145.82 48.5717 141.197 45.4273C134.341 40.7677 125.019 43.1612 117.474 46.5864C104.621 52.4173 93.8388 60.7378 83.7846 70.519C84.1638 65.7554 83.264 61.285 83.2195 56.5118C83.1495 49.5557 83.2492 42.7413 81.8511 35.8821Z" fill="#F5F5F5" stroke="#FF69CC" stroke-width="2.61" stroke-linecap="round" stroke-linejoin="round"/>
</g>
<defs>
<clipPath id="clip0_101_416">
<rect width="129.738" height="160.915" fill="white" transform="translate(28.9983) rotate(10.3819)"/>
</clipPath>
</defs>
</svg>
