<svg width="80" height="79" viewBox="0 0 80 79" fill="none" xmlns="http://www.w3.org/2000/svg">
<g id="a" clip-path="url(#clip0_139_902)">
<g id="Group">
<g id="Vector">
<path d="M11.1429 4.09338L16.0574 6.89017C22.4249 11.2849 20.9055 17.0561 20.9055 17.0561C20.9055 17.0561 16.3595 20.0543 8.69176 17.3791L3.76474 14.8063C8.93109 16.1902 13.7009 13.1622 13.7009 13.1622C13.7009 13.1622 14.2877 7.70738 11.1305 4.31965" fill="#F5F5F5"/>
<path d="M11.1429 4.09338L16.0574 6.89017C22.4249 11.2849 20.9055 17.0561 20.9055 17.0561C20.9055 17.0561 16.3595 20.0543 8.69176 17.3791L3.76474 14.8063C8.93109 16.1902 13.7009 13.1622 13.7009 13.1622C13.7009 13.1622 14.2877 7.70738 11.1305 4.31965" stroke="#FF69CC" stroke-width="2.61" stroke-linecap="round" stroke-linejoin="round"/>
</g>
<path id="Vector_2" d="M10.2811 11.6367C10.2811 11.6367 43.5429 25.6461 74.1318 60.6978" stroke="#FF69CC" stroke-width="2.61" stroke-linecap="round" stroke-linejoin="round"/>
<path id="Vector_3" d="M74.132 60.7001L58.2684 56.3045C65.0379 54.5083 69.3255 50.957 71.2095 45.7068L74.1296 60.7003L74.132 60.7001Z" fill="#F5F5F5" stroke="#FF69CC" stroke-width="2.61" stroke-linecap="round" stroke-linejoin="round"/>
</g>
<g id="Group_2">
<g id="Vector_4">
<path d="M4.75892 55.9332L9.14716 55.928C15.1286 56.4412 15.5739 60.923 15.5739 60.923C15.5739 60.923 14.4118 64.6854 8.21441 65.832L3.90353 65.9923C7.91687 64.9381 9.96964 61.0617 9.96964 61.0617C9.96964 61.0617 8.26667 57.1598 4.83628 56.0883" fill="#F5F5F5"/>
<path d="M4.75892 55.9332L9.14716 55.928C15.1286 56.4412 15.5739 60.923 15.5739 60.923C15.5739 60.923 14.4118 64.6854 8.21441 65.832L3.90353 65.9923C7.91687 64.9381 9.96964 61.0617 9.96964 61.0617C9.96964 61.0617 8.26667 57.1598 4.83628 56.0883" stroke="#FF69CC" stroke-width="2.03" stroke-linecap="round" stroke-linejoin="round"/>
</g>
<path id="Vector_5" d="M7.07843 61.3513C7.07843 61.3513 34.8879 58.0042 68.9878 69.8704" stroke="#FF69CC" stroke-width="2.03" stroke-linecap="round" stroke-linejoin="round"/>
<path id="Vector_6" d="M68.9878 69.8704L56.6033 73.0087C59.6394 68.9562 61.1917 64.9216 61.2524 60.8889L68.9856 69.8728L68.9878 69.8704Z" fill="#F5F5F5" stroke="#FF69CC" stroke-width="2.03" stroke-linecap="round" stroke-linejoin="round"/>
</g>
<path id="Vector_7" d="M68.8098 69.3431C68.2746 71.1652 63.7173 74.211 66.334 75.19C68.9507 76.1689 71.9803 74.5343 73.1035 71.5379C74.2266 68.5414 73.0127 65.3175 70.3984 64.3384C67.7817 63.3595 69.3375 67.552 68.8121 69.343L68.8098 69.3431Z" fill="#F5F5F5"/>
<path id="Vector_8" d="M74.0506 59.5213C72.8064 60.958 66.9696 61.3337 69.2773 63.7124C71.585 66.0912 75.3182 66.2119 77.6147 63.9819C79.9111 61.752 79.9003 58.0195 77.5903 55.6409C75.2803 53.2623 75.2729 58.1117 74.0506 59.5213Z" fill="#F5F5F5"/>
<path id="Vector_9" d="M73.2484 62.9004C73.2484 62.9004 75.584 62.8271 75.9315 60.6145" stroke="#FF69CC" stroke-width="2.61" stroke-linecap="round" stroke-linejoin="round"/>
<path id="Vector_10" d="M69.4293 71.9863C69.4293 71.9863 71.3255 71.2015 70.9242 69.2754" stroke="#FF69CC" stroke-width="2.3" stroke-linecap="round" stroke-linejoin="round"/>
</g>
<defs>
<clipPath id="clip0_139_902">
<rect width="74.8629" height="74.3094" fill="white" transform="translate(0 4.44897) rotate(-3.40701)"/>
</clipPath>
</defs>
</svg>
