<svg width="64" height="57" viewBox="0 0 64 57" fill="none" xmlns="http://www.w3.org/2000/svg">
<g id="a" clip-path="url(#clip0_72_171)">
<g id="b">
<path id="Vector" fill-rule="evenodd" clip-rule="evenodd" d="M46.89 53.65C46.52 53.65 46.16 53.6 45.81 53.51C43.16 52.74 28.73 44.59 26.67 36.61C25.99 33.98 26.63 31.59 28.52 29.69C28.62 29.59 31.46 26.77 32.17 26.06C29.92 27.57 27.25 29.36 24.1 31.49L24 31.55C21.9 32.83 19.49 33.48 16.85 33.48C12.77 33.48 8.84 31.97 5.54 30.48C2.99 29.34 1.8 26.29 2.9 23.68C8.26 11.01 33.86 2.5 54.41 2.5H54.55C55.06 2.5 56.71 2.58 57.99 3.62C59.05 4.48 59.34 5.56 59.48 6.08L59.51 6.18C63.95 21.66 58.42 42.13 52.5 50C50.68 52.42 48.79 53.65 46.9 53.65H46.89Z" fill="#F5F5F5"/>
<path id="Vector_2" d="M54.58 5C55 5 55.85 5.11 56.41 5.56C56.9 5.96 56.99 6.5 57.1 6.87C62.46 25.56 52.48 51.15 46.89 51.15C46.74 51.15 46.59 51.13 46.44 51.09C43.12 50.12 23.61 38.17 30.29 31.45C31 30.71 44.08 17.91 44.32 16.89C44.35 16.76 44.38 16.29 44.1 16.04C43.96 15.91 43.78 15.87 43.6 15.87C43.42 15.87 43.25 15.91 43.1 15.94C42.67 16.04 35.88 20.53 22.71 29.42C20.85 30.55 18.86 30.99 16.86 30.99C13.22 30.99 9.55 29.55 6.57 28.21C5.22 27.61 4.64 26.02 5.21 24.67C10.16 12.95 35.04 5 54.41 5H54.58ZM54.58 0H54.41C33.15 0 6.53 8.69 0.609999 22.72C-1.01 26.57 0.74 31.08 4.53 32.77C8.08 34.36 12.32 35.98 16.87 35.98C19.41 35.98 21.77 35.46 23.92 34.44C23.9 35.35 24.01 36.28 24.26 37.23C26.6 46.31 41.76 54.92 45.06 55.89L45.12 55.91L45.18 55.93C45.74 56.08 46.32 56.15 46.9 56.15C49.62 56.15 52.18 54.59 54.5 51.51C60.61 43.41 66.76 22.36 61.92 5.5V5.45C61.73 4.8 61.27 3.06 59.58 1.69C57.71 0.17 55.47 0.01 54.6 0.01L54.58 0Z" fill="#FF69CC"/>
</g>
</g>
<defs>
<clipPath id="clip0_72_171">
<rect width="63.65" height="56.15" fill="white"/>
</clipPath>
</defs>
</svg>
