<svg width="54" height="58" viewBox="0 0 54 58" fill="none" xmlns="http://www.w3.org/2000/svg">
<g id="a" clip-path="url(#clip0_72_186)">
<path id="Vector" d="M4.72002 54.7802C3.66002 53.9102 3.60002 52.4402 4.27002 51.2402C17.13 27.8102 30.21 13.4702 43.84 3.21021C44.94 2.38021 46.34 2.12021 47.4 2.99021C48.46 3.87021 48.89 5.64021 47.85 6.54021C36.75 16.2502 23.91 29.8802 8.29002 54.5402C7.55002 55.7002 5.78002 55.6502 4.72002 54.7802Z" fill="#FF69CC" stroke="#FF69CC" stroke-width="4.91" stroke-miterlimit="10"/>
<path id="Vector_2" d="M43.02 53.5901C32.4 37.7601 19.69 23.3801 4.57002 10.6401C2.64002 9.01008 2.60002 6.05008 4.49002 4.37008L4.54002 4.32008C5.87002 3.13008 7.82002 2.92008 9.38002 3.80008C27.68 14.0201 41.21 29.3601 50.26 49.5301C51.01 51.1901 50.6 53.1501 49.25 54.3701C47.37 56.0501 44.43 55.6901 43.02 53.6001V53.5901Z" fill="#F5F5F5" stroke="#FF69CC" stroke-width="4.91" stroke-miterlimit="10"/>
</g>
<defs>
<clipPath id="clip0_72_186">
<rect width="52.44" height="57.88" fill="white" transform="translate(0.650024)"/>
</clipPath>
</defs>
</svg>
